<svg id="Calque_1" data-name="Calque 1" xmlns="http://www.w3.org/2000/svg" viewBox="0 0 300 300">
<defs><style>.cls-1{opacity:0.3;}.cls-2,.cls-3{fill:#808080;}.cls-3{fill-rule:evenodd;}</style>
</defs><g class="cls-1">
<g id="background">
<path id="tomate" class="cls-2" d="M8.06,10.53a6.39,6.39,0,0,0-1.7,5,7.73,7.73,0,0,0-4.3,1.9,5.1,5.1,0,0,0-1.7,2.4,1.34,1.34,0,0,0,.2.9,11.17,11.17,0,0,0,0,7,10.5,10.5,0,0,0,13.5,6.4,10.63,10.63,0,0,0,2-19c0-.6-.5-.9-1-1.1a9,9,0,0,0-1.9-.4,7.47,7.47,0,0,0-3.9.6A2.13,2.13,0,0,1,10,13c.1-.1.2-.4,0-.5l-1.5-1.9c0-.3-.3-.2-.4-.1Zm1.4,2.3a3.41,3.41,0,0,0-1,2.1.37.37,0,0,0,.6.3,7,7,0,0,1,4.2-.9,3.81,3.81,0,0,1,1.6.3c1.3.4-.5,1.4-1,1.7a6.47,6.47,0,0,0-.9-.8.45.45,0,0,0-.5,0,.45.45,0,0,0,0,.5,18.48,18.48,0,0,1,1.4,1.4c.8,1.2.5,1.7-.7,1.7a18,18,0,0,1-2.2-.2v-.6a.4.4,0,0,0-.8,0v1.9c0,.5-.2,1.1-.5,1.2s-.8-.2-1.2-.6-.8-1-1.2-1.5a.36.36,0,0,0-.6.4c.1.1.2.3.4.5a12.07,12.07,0,0,1-1.6,1.6,9.22,9.22,0,0,1-.8.5c-.9.4-.7-2.7-.6-3.2,0-.2-.1-.4-.3-.4s-.4.1-.4.3c0,.4-.1.8-.1,1.2a6.88,6.88,0,0,1-1.3.2c-.8,0-.8-.3-.5-.9a6.91,6.91,0,0,1,1.2-1.4,7.25,7.25,0,0,1,4.2-1.8.37.37,0,0,0,.4-.4,5.72,5.72,0,0,1,1.2-4.3ZM3.86,23c.7.4,1.5-.2,2-.6a12.07,12.07,0,0,0,1.6-1.6l.4.4c.5.5,1.2,1.2,2,.9s.9-1.3,1-2v-.6a16.35,16.35,0,0,0,2.2.2,4.87,4.87,0,0,0,1.2-.1,1.24,1.24,0,0,0,.8-.6c.3-.6-.3-1.6-.7-2.1a5.83,5.83,0,0,0,1.5-1.1,9.32,9.32,0,0,1,3.9,5,10,10,0,0,1-6,12.6,9.8,9.8,0,0,1-12.6-6,9.38,9.38,0,0,1,0-6.4,5.31,5.31,0,0,0,1.8-.1c.3.8.3,1.7.9,2.1Zm12.5-5.2a.45.45,0,0,0,0,.5,6.8,6.8,0,0,1,2.1,4,8.54,8.54,0,0,1-.3,4.3.38.38,0,0,0,.7.3,9.06,9.06,0,0,0,.4-4.7,7.66,7.66,0,0,0-2.4-4.5.75.75,0,0,0-.5.1Zm1,11-.6.9c-.1.2-.1.4.1.5s.4.1.5-.1.4-.7.6-1a.44.44,0,0,0-.1-.5c-.3,0-.5.1-.5.2Z"/><path id="poivron" class="cls-2" d="M71.46,15.23a7,7,0,0,0-3.7,1.5,9.15,9.15,0,0,1-.1-1.7,1.4,1.4,0,0,0-.3-.9,1.4,1.4,0,0,0-.9-.3l-1.1.1a1.42,1.42,0,0,0-.6.2h0a1.33,1.33,0,0,0-.6,1,7.41,7.41,0,0,0,.6,3.6,6.18,6.18,0,0,0-2.7,2.6,4.55,4.55,0,0,0-.6,3l-.3.6a4.94,4.94,0,0,0,.4,3.5,13.71,13.71,0,0,0,3.7,4.3h0c3.1,2.5,5,3.9,6.5,4.4A3.26,3.26,0,0,0,74,37a5.8,5.8,0,0,0,1.5-1.3,3.07,3.07,0,0,0,2.5-.3,2.88,2.88,0,0,0,1.4-2.1,4.94,4.94,0,0,0,1.8-.8,3,3,0,0,0,1.1-1.9c.2-1.7-.2-3.9-1.2-7.8h0a14.68,14.68,0,0,0-2.3-5.3,4.22,4.22,0,0,0-3-1.9,4.87,4.87,0,0,0-1.2.1,6.16,6.16,0,0,0-3.1-.5Zm-4.9-.2a7.93,7.93,0,0,0,1.2,4.6,2,2,0,0,0-.9.9,8,8,0,0,1-1.6-5c0-.6.8-.6,1.3-.5Zm6.8,1.5a5.05,5.05,0,0,0-1.8,2.8,5,5,0,0,0-2.7-.2,7.46,7.46,0,0,1-.7-1.2A5.41,5.41,0,0,1,73.36,16.53Zm-10.9,6.8a5.27,5.27,0,0,1,2.1-3.1h0l.6-.3c.3.5.7,1.1,1.1,1.7a5,5,0,0,0-.2,1.2,5.52,5.52,0,0,0-3.6.5Zm9-2.8a12.63,12.63,0,0,1,3.3,3.2c2,2.9,3.6,6.9,3.5,9.7a1.48,1.48,0,0,1-.9,1.3,1.84,1.84,0,0,1-1.6.2c-2.5-1.1-5.5-4.2-7.3-7.3a11.08,11.08,0,0,1-1.5-4.3,2.93,2.93,0,0,1,1.4-2.8A2.88,2.88,0,0,1,71.46,20.53ZM63.66,24a4.78,4.78,0,0,1,2.4-.1,11.83,11.83,0,0,0,1.5,4.2,20,20,0,0,0,6.8,7.3,3.24,3.24,0,0,1-.9.8,1.69,1.69,0,0,1-1.4,0c-1.2-.3-3.1-1.7-6.1-4.2a14.5,14.5,0,0,1-3.5-4,3.27,3.27,0,0,1-.4-2.6,2.77,2.77,0,0,1,1.6-1.4Zm14.1-5.7a13.41,13.41,0,0,1,2.1,4.9c1,3.8,1.4,6.1,1.2,7.3a2,2,0,0,1-.6,1.2,2.26,2.26,0,0,1-1.1.5,19,19,0,0,0-3.7-9.3,13.87,13.87,0,0,0-3.2-3.2,4.32,4.32,0,0,1,1.2-2.1c1.6-1.4,3.2-.4,4.1.7Zm-2.8.1a.65.65,0,0,0,.2.8c.1,0,.2.1.3.2a.57.57,0,1,0,.7-.9.52.52,0,0,0-.4-.2C75.36,18,75.06,18.13,75,18.43Zm1.7,1.4a.61.61,0,0,0-.1.8,13.65,13.65,0,0,1,1.8,4.4.57.57,0,1,0,1.1-.3,16.36,16.36,0,0,0-2-4.8A.59.59,0,0,0,76.66,19.83Z"/><path id="aubergine" class="cls-2" d="M69.86,55.83a6.58,6.58,0,0,0-.4,1.5,4.15,4.15,0,0,1-.3,1.6,2.3,2.3,0,0,0-2.5,1.8,5.56,5.56,0,0,1-1.8,2.8.45.45,0,0,0,.2.8h1a8.81,8.81,0,0,1-3.2,7c-1.7,1.6-3.6,3.1-4.1,6.2a3.7,3.7,0,0,0,1.5,3.8,9.16,9.16,0,0,0,4.3,1.5h0a8.91,8.91,0,0,0,4.5-.7,6.41,6.41,0,0,0,4.7.2,9.14,9.14,0,0,0,4-2.8,27,27,0,0,0,5-8.2,2.18,2.18,0,0,0,.5.4c.3.2.8,0,.7-.4a5.33,5.33,0,0,1,.8-3,3.26,3.26,0,0,0,.4-1.4,2.08,2.08,0,0,0-.7-1.5,5.38,5.38,0,0,1,.9-1.2,5.67,5.67,0,0,0,.8-1.3,1.24,1.24,0,0,0-.4-1.5,1.21,1.21,0,0,0-1.6,0,3.46,3.46,0,0,0-1.1,1,10.59,10.59,0,0,1-1,1.2,2.41,2.41,0,0,0-1.6-.3,5.17,5.17,0,0,0-1.3.6,5,5,0,0,1-2.7,1.4c-.4,0-.5.5-.2.8a5.58,5.58,0,0,0,.8.5,9.22,9.22,0,0,1-3.2,3.3,31.45,31.45,0,0,0-.3-4.4,1.7,1.7,0,0,0,.7.1c.4,0,.7-.4.4-.7a5.08,5.08,0,0,1-.8-3.2,2.82,2.82,0,0,0-.4-1.5,3,3,0,0,0-1.4-1,9.85,9.85,0,0,1,.2-1.7,4.3,4.3,0,0,0,0-1.6,1.27,1.27,0,0,0-1.1-1.1,2.21,2.21,0,0,0-1.3,1Zm1.7.6v1.3a7.84,7.84,0,0,0-.2,1.4,1.14,1.14,0,0,0,.6,1.2,1.61,1.61,0,0,1,1,.7c.6,1.1.1,2.9,1,3.7a3.45,3.45,0,0,1-2.1-1.2c-.2-.2,0-.6,0-.8s-.1-.5-.4-.5-.5.1-.5.4a5.87,5.87,0,0,1-.6,2c-.1.2-.2.4-.4.4s-.2-.2-.2-.5a7.38,7.38,0,0,1,0-2.1c0-.2-.1-.5-.4-.5s-.5.1-.5.4a1.55,1.55,0,0,1-.2.8,3.87,3.87,0,0,1-2.3.5c1.1-.7,1.3-2.2,2-3.2a1.44,1.44,0,0,1,1.1-.3,1,1,0,0,0,.9-.9c.1-.4.1-.9.2-1.4a6.81,6.81,0,0,1,.3-1.2C71,55.93,71.46,55.93,71.56,56.43Zm13.8,6.3a6.42,6.42,0,0,1-.6,1c-.3.4-.6.7-.9,1.1a1.23,1.23,0,0,0-.1,1.3,1.35,1.35,0,0,1,.5,1,1.61,1.61,0,0,1-.3.9,4.81,4.81,0,0,0-.8,2.2c-.7-.9-1.1-1.6-.5-2.3a.42.42,0,1,0-.6-.6,10,10,0,0,1-1.5,1.4c-.2.1-.4.2-.5.1v-.5a10.42,10.42,0,0,1,1-1.8.63.63,0,0,0,0-.6.5.5,0,0,0-.6,0c-.5.8-2,.3-2.7-.1.9,0,2.1-1.3,3.2-1.7a2.8,2.8,0,0,1,1.1.2,1.05,1.05,0,0,0,1.2-.3,10.63,10.63,0,0,0,.9-1.1,2.94,2.94,0,0,1,.8-.8c.2-.1.6.2.4.6Zm-15.7,3.2c.9.1,1.4-1,1.7-1.7a4.19,4.19,0,0,0,1.4.9c.5,3.3.7,7.7-.3,11.1a8.3,8.3,0,0,1-2.5,4.2l-.9.6h0a6.61,6.61,0,0,1-4.1.7,9.4,9.4,0,0,1-3.9-1.3,2.83,2.83,0,0,1-1.1-3c.4-2.8,2.1-4,3.8-5.6a10,10,0,0,0,3.5-7.7,4.19,4.19,0,0,0,1.5-.4c-.2,1.1.1,2.1.9,2.2Zm9.8,1.5a6.58,6.58,0,0,0-.4,1.5.83.83,0,0,0,.3.8.78.78,0,0,0,.8.1,3.29,3.29,0,0,0,1.3-.7,3.69,3.69,0,0,0,.7,1.4,27.91,27.91,0,0,1-5,8.4,8.7,8.7,0,0,1-3.7,2.5,6.51,6.51,0,0,1-3.4.1c.1,0,.1-.1.2-.2a9,9,0,0,0,2.8-4.7,26.08,26.08,0,0,0,.8-5.6,9.21,9.21,0,0,0,4-3.9,6.13,6.13,0,0,0,1.6.3Zm-8.2-.6c-.2,0-.4.3-.4.5.5,3.3.6,7-.9,10a.45.45,0,1,0,.8.4c1.7-3.3,1.6-7.1,1-10.5C71.76,66.83,71.56,66.73,71.26,66.83Zm8.5,4.5a15.3,15.3,0,0,1-5.5,7.7.43.43,0,0,0,.5.7c2.9-1.9,4.7-5.1,5.8-8.1a.48.48,0,0,0-.2-.6.42.42,0,0,0-.6.3Zm-10.9,7.2a1.61,1.61,0,0,1-.7.4.4.4,0,0,0-.2.6.48.48,0,0,0,.6.2,2.36,2.36,0,0,0,.9-.6c.2-.1.2-.4,0-.6s-.4-.1-.6,0Z"/><path id="navet" class="cls-2" d="M34.86,46.13a4,4,0,0,0-3.8,3,4,4,0,0,0-2.3-.8,3.75,3.75,0,0,0-2.8,6.3,3.3,3.3,0,0,0,.2,2.9,2.34,2.34,0,0,0-.2,1.2c-7.8.4-9.6,8.6-5.5,12.6a2.85,2.85,0,0,1-.7.8,3.77,3.77,0,0,1-1.9,0,.6.6,0,0,0-.4.1c-.2.1-.2.4,0,.6a4.2,4.2,0,0,0,3.5,1.8,3.42,3.42,0,0,0,2.7-1.5c4,1.1,6.7-.7,8.5-3.6a6.58,6.58,0,0,0-.9-8.1c-1.1-.6-1.5-1.2-1.2-2.4a2,2,0,0,1,1.3-1.4c.3-.2.3-.7.4-1.1a2.91,2.91,0,0,1,2.7-2.1c.2,0,.3-.1.4-.3a3.92,3.92,0,0,1,4.7-2.7,3.8,3.8,0,0,1,2.7,4.6,3.72,3.72,0,0,1-4.7,2.6c-.2,0-.4,0-.5.2a3.13,3.13,0,0,1-2.8,1.4.52.52,0,0,0-.4.2,2,2,0,0,1-.9.9.45.45,0,1,0,.4.8,2.54,2.54,0,0,0,1.2-1.1,3.94,3.94,0,0,0,3.3-1.6,4.65,4.65,0,0,0,5.5-3.2c.6-3.4-1.4-5.6-4-5.9-.6-2.7-2.6-4.2-4.5-4.2Zm0,.9a3.14,3.14,0,0,1,3,3.3,4.73,4.73,0,0,0-3.9,3.3,3.84,3.84,0,0,0-3.3,2.8c0,.2-.1.5-.1.8a2.8,2.8,0,0,0-1.5,1.7,7.08,7.08,0,0,0-.1,1.4,1.77,1.77,0,0,1-1.7-.5,1.66,1.66,0,0,1-.2-1.9.45.45,0,0,0,0-.5,2.32,2.32,0,0,1-.2-2.4.44.44,0,0,0-.1-.5,3,3,0,1,1,4.2-4.2,3.34,3.34,0,0,1,.9,2.3c0,.2.2.5.4.5s.5-.2.5-.4a4.3,4.3,0,0,0-.7-2.5,2.85,2.85,0,0,1,2.8-3.2Zm-6.6,3.8a.34.34,0,0,0-.3.5,15.11,15.11,0,0,1,.4,4.8c0,.2.1.5.4.5s.5-.1.5-.4a17.32,17.32,0,0,0-.4-5.1C28.66,50.83,28.56,50.73,28.26,50.83Zm11.3,3.5h0a20.41,20.41,0,0,0-8.8,5c-.2.1-.2.4,0,.6s.4.2.6,0a19.46,19.46,0,0,1,8.3-4.8.38.38,0,0,0,.3-.5c0-.2-.2-.3-.4-.3Zm-13.5,5.4a2.09,2.09,0,0,0,.4.6,2.75,2.75,0,0,0,1.5.8,4.82,4.82,0,0,0,1.2,0,2.27,2.27,0,0,0,1.4,1.1c2.1,2.1,1.8,5.1.4,7.3a2.74,2.74,0,0,0-1.3-.2,1.1,1.1,0,0,1-1-.6,3.24,3.24,0,0,0-2.9-1.7,1.1,1.1,0,0,1-1-.6,3.24,3.24,0,0,0-2.9-1.7,1.1,1.1,0,0,1-1-.6,2.84,2.84,0,0,0-.9-1c.8-2.2,3.8-3.6,6.1-3.4ZM24,61a.62.62,0,0,0,.1.7,14.63,14.63,0,0,0,1.3.9c.2.1.5.1.6-.1s.1-.5-.1-.6a12.49,12.49,0,0,1-1.2-.9c-.3-.2-.5-.2-.7,0Zm-2.7.6a.38.38,0,0,0-.1.6,6.75,6.75,0,0,0,1.7,1.7c.2.1.5.1.6-.1s.1-.5-.1-.6a7,7,0,0,1-1.5-1.4.4.4,0,0,0-.6-.2Zm6.2,1.7a.48.48,0,0,0,.2.6,5.94,5.94,0,0,0,.8.4.45.45,0,1,0,.4-.8,2.51,2.51,0,0,1-.7-.4A.46.46,0,0,0,27.46,63.33Zm-8,.7a.92.92,0,0,1,.4.6,2.19,2.19,0,0,0,1.8,1.1,2.25,2.25,0,0,1,2.1,1.2,2.23,2.23,0,0,0,1.8,1,2.17,2.17,0,0,1,2.1,1.3,2.23,2.23,0,0,0,1.8,1,1.7,1.7,0,0,1,.7.1,5.83,5.83,0,0,1-6.8,1.9c-.2-.1-.4,0-.8.5a2.7,2.7,0,0,1-3.8.4,2,2,0,0,0,1.1-.2,3.43,3.43,0,0,0,1.2-1.2c.2-.4.2-.7,0-.8a6.34,6.34,0,0,1-1.6-6.9Zm5.9,1a.61.61,0,0,0,.1.6,10.93,10.93,0,0,0,1.5.8.45.45,0,0,0,.4-.8,10.93,10.93,0,0,1-1.5-.8c-.1-.1-.3,0-.5.2Zm3.7,1.9a.48.48,0,0,0,.2.6c.2.1.4.1.6.2a.45.45,0,0,0,.6-.3.42.42,0,0,0-.3-.6,1.42,1.42,0,0,1-.6-.2C29.36,66.53,29.16,66.63,29.06,66.93Z"/><g id="cerise"><path id="Fill-3" class="cls-3" d="M126,16.53a5,5,0,0,1-1.2,3.3,5.76,5.76,0,0,1-8.2.7,5.55,5.55,0,0,1-1.7-2.3,5.53,5.53,0,0,0,2,3.9,5.76,5.76,0,0,0,8.2-.7,4.22,4.22,0,0,0,.9-4.9"/><g id="Group-7"><path id="Fill-5" class="cls-3" d="M123.56,14.43c-1.8-1.5-4.6-2.5-6.6-.1a5.11,5.11,0,1,0,7.8,6.6c1.9-2.4.6-5-1.2-6.5m-7,8.2a6.63,6.63,0,0,1-.8-9.3c2.2-2.6,5.7-2.6,8.7-.1s3.6,6,1.4,8.6a6.46,6.46,0,0,1-9.3.8"/></g><path id="Fill-8" class="cls-3" d="M121.26,17.13a3,3,0,0,1-1.2-2.2.75.75,0,0,1,1.5.1s0,.5.7,1a1.9,1.9,0,0,0,1.1.5c.4,0,.8.2.8.6s-.2.8-.6.8a2.87,2.87,0,0,1-2.3-.8"/><path id="Fill-10" class="cls-3" d="M119.36,17.33a3.12,3.12,0,0,1-1.1-2.5.55.55,0,0,1,1.1.1,2.16,2.16,0,0,0,.8,1.6.61.61,0,0,1,.1.8c-.2.3-.5.2-.9,0h0"/><path id="Fill-14" class="cls-3" d="M136.56,25.43a5,5,0,0,1-1.2,3.3,5.76,5.76,0,0,1-8.2.7,5.55,5.55,0,0,1-1.7-2.3,5.53,5.53,0,0,0,2,3.9,5.76,5.76,0,0,0,8.2-.7,4.19,4.19,0,0,0,.9-4.9"/><g id="Group-18"><path id="Fill-16" class="cls-3" d="M134.07,23.33c-1.8-1.5-4.6-2.5-6.6-.1a5.11,5.11,0,0,0,7.8,6.6c2-2.3.6-4.9-1.2-6.5m-7,8.3a6.63,6.63,0,0,1-.8-9.3c2.2-2.6,5.7-2.6,8.7-.1s3.6,6,1.4,8.6a6.54,6.54,0,0,1-9.3.8"/></g><path id="Fill-19" class="cls-3" d="M131.76,26.13a3,3,0,0,1-1.2-2.2.75.75,0,0,1,1.5.1s0,.5.7,1a1.9,1.9,0,0,0,1.1.5c.4,0,.8.2.8.6s-.2.8-.6.8a3,3,0,0,1-2.3-.8"/><path id="Fill-21" class="cls-3" d="M130,26.23a3.12,3.12,0,0,1-1.1-2.5.55.55,0,1,1,1.1.1,2.16,2.16,0,0,0,.8,1.6.61.61,0,0,1,.1.8.63.63,0,0,1-.9,0c.1.1,0,.1,0,0"/><path id="Fill-23" class="cls-3" d="M121.46,16.93h0a.9.9,0,0,1-.1-1.1c1.4-1.6,3.1-1.9,4.8-2.2,2.4-.4,5-.9,7.4-5.3a.74.74,0,1,1,1.3.7c-2.8,5.1-5.9,5.6-8.5,6-1.6.3-2.9.5-3.9,1.7a.7.7,0,0,1-1,.2"/><path id="Fill-25" class="cls-3" d="M131.76,26.13a1,1,0,0,1-.2-.9c0-.1,7.2-14.3.3-18.4a.68.68,0,0,1-.2-1,.68.68,0,0,1,1-.2c8,4.9.5,19.8.2,20.4a.69.69,0,0,1-1,.3c0-.2,0-.2-.1-.2"/><path id="Fill-29" class="cls-3" d="M144,12.83l-8.9-4.5c0,.1-.3,7.6,8.9,4.5"/><path id="Fill-31" class="cls-3" d="M135.86,8.73a4.4,4.4,0,0,0,1.6,3.3c1.2.9,3.1,1,5.6.3-.9-2.4-2.1-3.9-3.6-4.3a5.27,5.27,0,0,0-3.6.7m.5,4.3a6.49,6.49,0,0,1-1.9-4.7.55.55,0,0,1,.3-.5,6.13,6.13,0,0,1,5.2-1.2q3.15.9,4.8,6a.72.72,0,0,1-.5.9c-3.4,1.1-5.9,1-7.7-.3-.2,0-.2-.1-.2-.2"/></g><path id="carote" class="cls-3" d="M154.36,97.53a3,3,0,0,0-2.3.7,6.85,6.85,0,0,0-2,2.9l-.3,1.2a.65.65,0,0,0,1.3.1,1.88,1.88,0,0,1,.2-.8,6.43,6.43,0,0,1,1.7-2.4c.6-.5,1.1-.6,1.4-.4a.79.79,0,0,1,.5.6,5.42,5.42,0,0,1,.2,1.5,4.05,4.05,0,0,0-.9.5,9.78,9.78,0,0,0-3.2,3.2,5,5,0,0,0-1.3-.5,5.76,5.76,0,0,0-4,.7c-.6.4-2,1.3-3.7,2.6s-3.8,2.9-5.8,4.5a66.83,66.83,0,0,0-5.2,4.6,12.41,12.41,0,0,0-1.6,1.9,3.55,3.55,0,0,0-.4.9,1.21,1.21,0,0,0,.1,1,1.56,1.56,0,0,0,.8.6,2.77,2.77,0,0,0,.9.1,12,12,0,0,0,2.4-.4,59,59,0,0,0,6.6-2.3c2.4-.9,4.8-2,6.8-2.9s3.5-1.6,4.1-2a5.49,5.49,0,0,0,2.5-3.3,5.14,5.14,0,0,0,2.7,1.2,9.75,9.75,0,0,0,3.5-.3,2.7,2.7,0,0,0,1.9-2.1,2.28,2.28,0,0,0-.7-1.9,7.27,7.27,0,0,0-.9-.8,10.18,10.18,0,0,0,1.8-1.8,7,7,0,0,0,.9-1.7,2.46,2.46,0,0,0-.2-1.7,2.43,2.43,0,0,0-1.4-1,11.48,11.48,0,0,0-1.9-.1,8.6,8.6,0,0,0-2.5.7,3.19,3.19,0,0,0-.3-1.4,2.1,2.1,0,0,0-1.7-1.7Zm6.1,3.5a.92.92,0,0,1,.6.4.82.82,0,0,1,0,.7,4.21,4.21,0,0,1-.7,1.3,12.79,12.79,0,0,1-3.4,2.9,7.58,7.58,0,0,1-3.8.9c0-.1-.1-.2-.1-.4l1.9-1.1a.65.65,0,0,0,.2-.9,1.38,1.38,0,0,0-.4-.3h-.5l-1.9,1.1-.3-.3a9.18,9.18,0,0,1,2.7-2.9,12.31,12.31,0,0,1,4.2-1.6c.6.1,1.1.1,1.5.2Zm-2,5.8a2.42,2.42,0,0,1,1.1.8c.3.3.4.6.3.8s-.4.7-1.1,1a6.48,6.48,0,0,1-2.9.3,4.57,4.57,0,0,1-2.4-1.2,8.79,8.79,0,0,0,4-1.2,1.87,1.87,0,0,0,1-.5Zm-9-1.6a3.2,3.2,0,0,1,2.3,1.6,3.87,3.87,0,0,1-1.7,5.2c-.2.1-.7.4-1.3.7l-1.6-2.6c-.1-.1-.2-.3-.4-.3h-.5a.65.65,0,0,0-.2.9l1.5,2.6c-.5.2-.9.4-1.5.7-1.5.6-3.2,1.4-4.9,2.1l-1.2-2c-.1-.1-.2-.3-.4-.3a1.09,1.09,0,0,0-.5.1.65.65,0,0,0-.2.9l1.1,1.8c-.2.1-.4.1-.6.2A54.65,54.65,0,0,1,133,119a14.31,14.31,0,0,1-2.1.4h-.5c0-.1.1-.2.2-.4a8,8,0,0,1,1.4-1.7,64.37,64.37,0,0,1,5.1-4.5c1.3-1,2.5-2,3.7-2.9l1.5,2.6a.65.65,0,0,0,1.1-.7l-1.6-2.7c.3-.2.7-.5,1-.7a43.49,43.49,0,0,1,3.6-2.5,4,4,0,0,1,3.1-.7Z"/><path id="champi" class="cls-3" d="M96.26,115.83a9.59,9.59,0,0,0-6.3,2.3,8.48,8.48,0,0,0-2.8,6.6h0a2.59,2.59,0,0,0,1.4,2.4,3,3,0,0,0,2.6,0h0a10.37,10.37,0,0,1,5.1-1.1h1.5a24.33,24.33,0,0,0,1.1,7h0a2,2,0,0,1,.1.8,2.7,2.7,0,1,1-5.4,0,2.2,2.2,0,0,1,.1-.8,23.52,23.52,0,0,0,1-5.9l.1-1.1h-.4l-.7.1v.9a22.76,22.76,0,0,1-1,5.7,3.75,3.75,0,0,0-.1,1.1,3.6,3.6,0,1,0,7.2,0,4.48,4.48,0,0,0-.1-1.1h0a24,24,0,0,1-1-6.6,6.18,6.18,0,0,1,2.7.9.76.76,0,0,0,.5.2,2.77,2.77,0,0,0,.1.9,2.22,2.22,0,0,0,1.7,1.4,1.91,1.91,0,0,1,1.5.4.88.88,0,0,1-.1.7c-1.3,1.3-2.9,2.5-4.1,3.7a3.19,3.19,0,0,0,4.9,4.1,5.58,5.58,0,0,0,.5-.8c.6-1.2,1.5-2.8,2.3-4.2a.78.78,0,0,1,.7-.3.74.74,0,0,1,.6.5,3.54,3.54,0,0,0,.3,1.1,2.07,2.07,0,0,0,1.7,1.4,2.66,2.66,0,0,0,2.2-.9,6.91,6.91,0,0,0,1.6-4.9,7.64,7.64,0,0,0-8.2-7.2,5.13,5.13,0,0,0-2.4.7,11.15,11.15,0,0,0-2.7,2,.52.52,0,0,0-.2.4c-.1,0-.2-.1-.3-.1h0a11.27,11.27,0,0,0-5.6-1.2,11.52,11.52,0,0,0-5.6,1.2h0a1.72,1.72,0,0,1-1.7,0,1.77,1.77,0,0,1-.9-1.6h0a7.57,7.57,0,0,1,2.5-5.9,9.42,9.42,0,0,1,5.6-2.1,8.19,8.19,0,0,1,8,6.2,4.05,4.05,0,0,0,.3,1.2h0l.4-.2.3-.1h0a8.66,8.66,0,0,0-.2-1,9.06,9.06,0,0,0-8.8-6.8Zm-3.7,3a1.4,1.4,0,1,0,1.4,1.4A1.5,1.5,0,0,0,92.56,118.83Zm0,.9a.4.4,0,1,1-.4.4C92.06,119.93,92.26,119.73,92.56,119.73Zm2.7,1.7a1.4,1.4,0,1,0,0,2.8,1.37,1.37,0,0,0,1.4-1.4A1.5,1.5,0,0,0,95.26,121.43Zm-4.5.4a1.43,1.43,0,0,0-1.4,1.4,1.4,1.4,0,1,0,2.8,0A1.59,1.59,0,0,0,90.76,121.83Zm4.5.5a.4.4,0,1,1-.4.4C94.76,122.53,95,122.33,95.26,122.33Zm-4.5.5a.4.4,0,1,1-.4.4A.43.43,0,0,1,90.76,122.83Zm17.3,1.3a5.91,5.91,0,0,1,4.1,1.6,6.78,6.78,0,0,1,2.4,4.8,6,6,0,0,1-1.4,4.2,1.82,1.82,0,0,1-1.4.6,1.59,1.59,0,0,1-1-.8l-.2-1.1a1.63,1.63,0,0,0-1.3-1.1,1.73,1.73,0,0,0-1.6.7l-2.4,4.4-.3.6a2.24,2.24,0,0,1-3.2.3,2.12,2.12,0,0,1-.2-3.1c1.1-1.4,2.9-2.5,4-3.7a1.65,1.65,0,0,0,.2-1.8,2.21,2.21,0,0,0-2-.9,1.33,1.33,0,0,1-1-.8,1.53,1.53,0,0,1,.2-1.3,7.44,7.44,0,0,1,4.5-2.4.73.73,0,0,1,.6-.2Z"/><g id="fraise"><path id="path-1" class="cls-2" d="M115.76,75.13c-5.5,1.7-14.1-6.3-15.7-11.7s3.1-10.7,8.4-12.3,12.1,0,13.8,5.5S121.26,73.53,115.76,75.13Zm-6.9-22.6c-4.7,1.4-8.8,5.8-7.4,10.5s9.3,12.1,13.9,10.8,7-11.9,5.5-16.6S113.56,51.13,108.86,52.53Z"/><path id="path-2" class="cls-2" d="M101.66,55.43a1.7,1.7,0,0,1-.7-.1.57.57,0,0,1-.2-.7c.3-2.3,2.3-3.6,3.6-4.2-.6-.5-1.7-1.2-2.6-1.8a.6.6,0,0,1-.3-.6.71.71,0,0,1,.3-.6,1.49,1.49,0,0,1,.7-.3c1.6-.5,4,.4,5.1.9.7-1,2.2-3.1,3.7-3.6a2.2,2.2,0,0,1,.8-.1.6.6,0,0,1,.6.3.85.85,0,0,1,0,.7c-.4.9-.8,1.9-1.1,2.7a5,5,0,0,1,5.3,1.7.82.82,0,0,1,.1.7c0,.2-.2.4-.5.5L113,52h-.1l-3.9.3a.49.49,0,0,0-.3.1l-3.3,1.8h-.1l-3.6,1.2Zm11.1-4.8,2.2-.7a3.69,3.69,0,0,0-3.2-.3,4.54,4.54,0,0,0-.8.3.64.64,0,0,1-.6,0,1,1,0,0,1-.4-.5,5.9,5.9,0,0,1,.7-2.8,9.55,9.55,0,0,0-2,2.6.75.75,0,0,1-.5.7h0a.83.83,0,0,1-.8-.3,10.89,10.89,0,0,0-3.2-1,9.63,9.63,0,0,1,2.2,1.9c.1.2,0,.4,0,.6a.7.7,0,0,1-.5.4h-.1a5.73,5.73,0,0,0-3.1,2.1l2-.7,3.3-1.8h.1a.44.44,0,0,0,.3-.1h.2Z"/><path id="path-3" class="cls-2" d="M105,61.33a.79.79,0,1,1-1-.5C104.36,60.63,104.76,60.83,105,61.33Z"/><path id="path-4" class="cls-2" d="M109.56,59.83a.79.79,0,1,1-1-.5A.88.88,0,0,1,109.56,59.83Z"/><path id="path-5" class="cls-2" d="M114.16,58.43a.79.79,0,1,1-1-.5A.83.83,0,0,1,114.16,58.43Z"/><path id="path-6" class="cls-2" d="M118.86,57a.79.79,0,1,1-1-.5C118.26,56.33,118.66,56.63,118.86,57Z"/><path id="path-7" class="cls-2" d="M108.06,64.23a.79.79,0,1,1-1-.5A.83.83,0,0,1,108.06,64.23Z"/><path id="path-8" class="cls-2" d="M112.66,62.83a.79.79,0,1,1-1-.5A.72.72,0,0,1,112.66,62.83Z"/><path id="path-9" class="cls-2" d="M117.36,61.43a.79.79,0,1,1-1-.5A.75.75,0,0,1,117.36,61.43Z"/><path id="path-10" class="cls-2" d="M106,57.33a.79.79,0,1,1-1-.5C105.36,56.63,105.76,56.83,106,57.33Z"/><path id="path-11" class="cls-2" d="M110.56,55.83a.79.79,0,1,1-1-.5A.83.83,0,0,1,110.56,55.83Z"/><path id="path-12" class="cls-2" d="M115.26,54.43a.79.79,0,1,1-1-.5A.88.88,0,0,1,115.26,54.43Z"/><path id="path-13" class="cls-2" d="M111.56,68.33a.79.79,0,1,1-1-.5C111,67.63,111.36,67.83,111.56,68.33Z"/><path id="path-14" class="cls-2" d="M116.16,66.93a.79.79,0,1,1-1-.5A.67.67,0,0,1,116.16,66.93Z"/><path id="path-15" class="cls-2" d="M115.26,71.13a.79.79,0,1,1-1-.5C114.66,70.43,115.06,70.73,115.26,71.13Z"/></g><g id="raisin"><path id="path-1-2" data-name="path-1" class="cls-2" d="M38.56,115.63a3.65,3.65,0,1,1,1.9-4.8A3.71,3.71,0,0,1,38.56,115.63Zm-2.3-5.3a2.22,2.22,0,1,0,2.9,1.2A2.21,2.21,0,0,0,36.26,110.33Z"/><path id="path-2-2" data-name="path-2" class="cls-2" d="M44.06,113.33a3.65,3.65,0,1,1,1.9-4.8A3.64,3.64,0,0,1,44.06,113.33Zm-2.3-5.3a2.22,2.22,0,1,0,2.9,1.2A2.21,2.21,0,0,0,41.76,108Z"/><path id="path-3-2" data-name="path-3" class="cls-2" d="M49.56,111a3.65,3.65,0,1,1,1.9-4.8A3.59,3.59,0,0,1,49.56,111Zm-2.3-5.4a2.22,2.22,0,1,0,2.9,1.2A2.24,2.24,0,0,0,47.26,105.63Z"/><path id="path-4-2" data-name="path-4" class="cls-2" d="M43.26,119.33a3.65,3.65,0,1,1,1.9-4.8A3.52,3.52,0,0,1,43.26,119.33Zm-2.2-5.4a2.22,2.22,0,1,0,2.9,1.2A2.34,2.34,0,0,0,41.06,113.93Z"/><path id="path-5-2" data-name="path-5" class="cls-2" d="M48.86,117a3.65,3.65,0,1,1,1.9-4.8A3.71,3.71,0,0,1,48.86,117Zm-2.3-5.4a2.22,2.22,0,1,0,2.9,1.2A2.24,2.24,0,0,0,46.56,111.63Z"/><path id="path-6-2" data-name="path-6" class="cls-2" d="M39.06,109.13a3.65,3.65,0,1,1,1.9-4.8A3.71,3.71,0,0,1,39.06,109.13Zm-2.3-5.3a2.22,2.22,0,1,0,2.9,1.2A2.16,2.16,0,0,0,36.76,103.83Z"/><path id="path-7-2" data-name="path-7" class="cls-2" d="M44.56,106.83a3.65,3.65,0,1,1,1.9-4.8A3.63,3.63,0,0,1,44.56,106.83Zm-2.3-5.4a2.22,2.22,0,1,0,2.9,1.2A2.34,2.34,0,0,0,42.26,101.43Z"/><path id="path-8-2" data-name="path-8" class="cls-2" d="M48,123.13a3.65,3.65,0,1,1,1.9-4.8A3.63,3.63,0,0,1,48,123.13Zm-2.3-5.4a2.22,2.22,0,1,0,2.9,1.2A2.24,2.24,0,0,0,45.66,117.73Z"/><path id="path-9-2" data-name="path-9" class="cls-2" d="M40.76,105.23a1,1,0,0,1-.9-.2c-.2-.3-5.4-7.8-1-11.3a.71.71,0,0,1,.9,1.1c-3.3,2.6,1.3,9.2,1.3,9.3a.83.83,0,0,1-.3,1.1Z"/></g><g id="hd"><path id="tomate-2" data-name="tomate" class="cls-2" d="M224.66,85.63a6.39,6.39,0,0,0,1.7-5,7.73,7.73,0,0,0,4.3-1.9,5.1,5.1,0,0,0,1.7-2.4,1.34,1.34,0,0,0-.2-.9,11.17,11.17,0,0,0,0-7A10.56,10.56,0,1,0,216.66,81c0,.6.5.9,1,1.1a9,9,0,0,0,1.9.4,7.47,7.47,0,0,0,3.9-.6,2.13,2.13,0,0,1-.7,1.2c-.1.1-.2.4,0,.5l1.5,1.9c0,.3.3.3.4.1Zm-1.3-2.3a3.58,3.58,0,0,0,.9-2.1.37.37,0,0,0-.6-.3,7,7,0,0,1-4.2.9,3.81,3.81,0,0,1-1.6-.3c-1.3-.4.5-1.4,1-1.7a6.47,6.47,0,0,0,.9.8.35.35,0,0,0,.5-.5,18.48,18.48,0,0,1-1.4-1.4c-.8-1.2-.5-1.7.7-1.7a18,18,0,0,1,2.2.2v.6a.4.4,0,0,0,.8,0v-1.9c0-.5.2-1.1.5-1.2s.8.2,1.2.6.8,1,1.2,1.5a.36.36,0,1,0,.6-.4c-.1-.1-.2-.3-.4-.5a12.07,12.07,0,0,1,1.6-1.6,9.22,9.22,0,0,1,.8-.5c.9-.4.7,2.7.6,3.2,0,.2.1.4.3.4s.4-.1.4-.3c0-.4.1-.8.1-1.2a6.88,6.88,0,0,1,1.3-.2c.8,0,.8.3.5.9a6.91,6.91,0,0,1-1.2,1.4,7.25,7.25,0,0,1-4.2,1.8.37.37,0,0,0-.4.4,5.72,5.72,0,0,1-1.2,4.3Zm5.5-10.2c-.7-.4-1.5.2-2,.6a12.07,12.07,0,0,0-1.6,1.6l-.4-.4c-.5-.5-1.2-1.2-2-.9s-.9,1.3-1,2v.6a16.35,16.35,0,0,0-2.2-.2,4.87,4.87,0,0,0-1.2.1,1.24,1.24,0,0,0-.8.6c-.3.6.3,1.6.7,2.1a5.83,5.83,0,0,0-1.5,1.1,9.32,9.32,0,0,1-3.9-5,10,10,0,0,1,6-12.6,9.8,9.8,0,0,1,12.6,6,9.38,9.38,0,0,1,0,6.4,5.31,5.31,0,0,0-1.8.1c-.3-.8-.3-1.6-.9-2.1Zm-12.5,5.2a.45.45,0,0,0,0-.5,6.8,6.8,0,0,1-2.1-4,8.54,8.54,0,0,1,.3-4.3.38.38,0,1,0-.7-.3,9.06,9.06,0,0,0-.4,4.7,7.66,7.66,0,0,0,2.4,4.5.44.44,0,0,0,.5-.1Zm-.9-11,.6-.9c.1-.2.1-.4-.1-.5s-.4-.1-.5.1-.4.7-.6,1a.44.44,0,0,0,.1.5.37.37,0,0,0,.5-.2Z"/><path id="poivron-2" data-name="poivron" class="cls-2" d="M176.76,81a7,7,0,0,0,3.7-1.5,9.15,9.15,0,0,1,.1,1.7,1.06,1.06,0,0,0,1.2,1.2l1.1-.1a1.42,1.42,0,0,0,.6-.2h0a1.33,1.33,0,0,0,.6-1,7.41,7.41,0,0,0-.6-3.6,6.18,6.18,0,0,0,2.7-2.6,4.55,4.55,0,0,0,.6-3l.3-.6a4.94,4.94,0,0,0-.4-3.5,12.49,12.49,0,0,0-3.7-4.3h0c-3.1-2.5-5-3.9-6.5-4.4a3.26,3.26,0,0,0-2.2.1,5.8,5.8,0,0,0-1.5,1.3,3.07,3.07,0,0,0-2.5.3,2.88,2.88,0,0,0-1.4,2.1,4.94,4.94,0,0,0-1.8.8,3,3,0,0,0-1.1,1.9c-.2,1.7.2,3.9,1.2,7.8h0a14.68,14.68,0,0,0,2.3,5.3,4.22,4.22,0,0,0,3,1.9,4.87,4.87,0,0,0,1.2-.1,6.35,6.35,0,0,0,3.1.5Zm5,.2a7.93,7.93,0,0,0-1.2-4.6,2,2,0,0,0,.9-.9,8,8,0,0,1,1.6,5c0,.5-.9.5-1.3.5Zm-6.8-1.5a5.05,5.05,0,0,0,1.8-2.8,5,5,0,0,0,2.7.2,7.46,7.46,0,0,1,.7,1.2A6,6,0,0,1,175,79.73Zm10.9-6.9a5.27,5.27,0,0,1-2.1,3.1h0l-.6.3c-.3-.5-.7-1.1-1.1-1.7a5,5,0,0,0,.2-1.2,4.52,4.52,0,0,0,3.6-.5Zm-9,2.9a12.63,12.63,0,0,1-3.3-3.2c-2-2.9-3.6-6.9-3.5-9.7a1.48,1.48,0,0,1,.9-1.3,1.84,1.84,0,0,1,1.6-.2c2.5,1.1,5.5,4.2,7.3,7.3a11.08,11.08,0,0,1,1.5,4.3,2.93,2.93,0,0,1-1.4,2.8A3.08,3.08,0,0,1,176.86,75.73Zm7.8-3.6a4.78,4.78,0,0,1-2.4.1,11.83,11.83,0,0,0-1.5-4.2,20,20,0,0,0-6.8-7.3,3.24,3.24,0,0,1,.9-.8,1.69,1.69,0,0,1,1.4,0c1.2.3,3.1,1.7,6.1,4.2a14.5,14.5,0,0,1,3.5,4,3.27,3.27,0,0,1,.4,2.6,2.73,2.73,0,0,1-1.6,1.4Zm-14.1,5.7a13.41,13.41,0,0,1-2.1-4.9c-1-3.8-1.4-6.1-1.2-7.3a2,2,0,0,1,.6-1.2,2.26,2.26,0,0,1,1.1-.5,19,19,0,0,0,3.7,9.3,13.87,13.87,0,0,0,3.2,3.2,4.32,4.32,0,0,1-1.2,2.1c-1.7,1.5-3.3.5-4.1-.7Zm2.8,0a.65.65,0,0,0-.2-.8c-.1,0-.2-.1-.3-.2a.57.57,0,1,0-.7.9.52.52,0,0,0,.4.2C173,78.23,173.16,78,173.36,77.83Zm-1.8-1.5a.61.61,0,0,0,.1-.8,13.65,13.65,0,0,1-1.8-4.4.57.57,0,0,0-1.1.3,16.36,16.36,0,0,0,2,4.8A.62.62,0,0,0,171.56,76.33Z"/><path id="aubergine-2" data-name="aubergine" class="cls-2" d="M275.36,145.53a6.58,6.58,0,0,0,.4-1.5,4.15,4.15,0,0,1,.3-1.6,2.3,2.3,0,0,0,2.5-1.8,5.56,5.56,0,0,1,1.8-2.8.45.45,0,0,0-.2-.8h-1a8.81,8.81,0,0,1,3.2-7c1.7-1.6,3.6-3.1,4.1-6.2A3.7,3.7,0,0,0,285,120a9.16,9.16,0,0,0-4.3-1.5h0a8.91,8.91,0,0,0-4.5.7,6.41,6.41,0,0,0-4.7-.2,9.14,9.14,0,0,0-4,2.8,27,27,0,0,0-5,8.2,2.18,2.18,0,0,0-.5-.4c-.3-.2-.8,0-.7.4a5.33,5.33,0,0,1-.8,3,3.26,3.26,0,0,0-.4,1.4,2.08,2.08,0,0,0,.7,1.5,5.38,5.38,0,0,1-.9,1.2,5.67,5.67,0,0,0-.8,1.3,1.24,1.24,0,0,0,.4,1.5,1.21,1.21,0,0,0,1.6,0,3.46,3.46,0,0,0,1.1-1,10.59,10.59,0,0,1,1-1.2,2.41,2.41,0,0,0,1.6.3,5.17,5.17,0,0,0,1.3-.6,5,5,0,0,1,2.7-1.4c.4,0,.5-.5.2-.8a5.58,5.58,0,0,0-.8-.5,9.22,9.22,0,0,1,3.2-3.3,31.45,31.45,0,0,0,.3,4.4,1.7,1.7,0,0,0-.7-.1c-.4,0-.7.4-.4.7a5.08,5.08,0,0,1,.8,3.2,2.82,2.82,0,0,0,.4,1.5,3,3,0,0,0,1.4,1,9.85,9.85,0,0,1-.2,1.7,4.3,4.3,0,0,0,0,1.6,1.27,1.27,0,0,0,1.1,1.1,2.21,2.21,0,0,0,1.3-1Zm-1.7-.6v-1.3a7.84,7.84,0,0,0,.2-1.4,1.14,1.14,0,0,0-.6-1.2,1.61,1.61,0,0,1-1-.7c-.6-1.1-.1-2.9-1-3.7a3.45,3.45,0,0,1,2.1,1.2c.2.2,0,.6,0,.8s.1.5.4.5.5-.1.5-.4a5.87,5.87,0,0,1,.6-2c.1-.2.2-.4.4-.4s.2.2.2.5a7.38,7.38,0,0,1,0,2.1c0,.2.1.5.4.5s.5-.1.5-.4a1.55,1.55,0,0,1,.2-.8,3.87,3.87,0,0,1,2.3-.5c-1.1.7-1.3,2.2-2,3.2a1.44,1.44,0,0,1-1.1.3,1,1,0,0,0-.9.9c-.1.4-.1.9-.2,1.4a6.81,6.81,0,0,1-.3,1.2C274.26,145.53,273.76,145.43,273.66,144.93Zm-13.8-6.3a6.42,6.42,0,0,1,.6-1c.3-.4.6-.7.9-1.1a1.23,1.23,0,0,0,.1-1.3,1.35,1.35,0,0,1-.5-1,1.61,1.61,0,0,1,.3-.9,4.81,4.81,0,0,0,.8-2.2c.7.9,1.1,1.6.5,2.3a.42.42,0,1,0,.6.6,10,10,0,0,1,1.5-1.4c.2-.1.4-.2.5-.1v.5a10.42,10.42,0,0,1-1,1.8.63.63,0,0,0,0,.6.5.5,0,0,0,.6,0c.5-.8,2-.3,2.7.1-.9,0-2.1,1.3-3.2,1.7a2.8,2.8,0,0,1-1.1-.2,1.05,1.05,0,0,0-1.2.3,10.63,10.63,0,0,0-.9,1.1,2.94,2.94,0,0,1-.8.8c-.2.1-.6-.2-.4-.6Zm15.7-3.2c-.9-.1-1.4,1-1.7,1.7a4.19,4.19,0,0,0-1.4-.9c-.5-3.3-.7-7.7.3-11.1a8.3,8.3,0,0,1,2.5-4.2l.9-.6h0a6.61,6.61,0,0,1,4.1-.7,9.4,9.4,0,0,1,3.9,1.3,2.83,2.83,0,0,1,1.1,3c-.4,2.8-2.1,4-3.8,5.6a10,10,0,0,0-3.5,7.7,4.19,4.19,0,0,0-1.5.4c.2-1.1-.1-2.1-.9-2.2Zm-9.8-1.5a6.58,6.58,0,0,0,.4-1.5.83.83,0,0,0-.3-.8.8.8,0,0,0-.8-.1,3.29,3.29,0,0,0-1.3.7,3.69,3.69,0,0,0-.7-1.4,27.91,27.91,0,0,1,5-8.4,8.7,8.7,0,0,1,3.7-2.5,6.51,6.51,0,0,1,3.4-.1c-.1,0-.1.1-.2.2a9,9,0,0,0-2.8,4.7,26.08,26.08,0,0,0-.8,5.6,9.21,9.21,0,0,0-4,3.9,6.13,6.13,0,0,0-1.6-.3Zm8.2.7c.2,0,.4-.3.4-.5-.5-3.3-.6-7,.9-10a.45.45,0,0,0-.8-.4c-1.7,3.3-1.6,7.1-1,10.5C273.46,134.53,273.66,134.63,274,134.63Zm-8.5-4.6a15.3,15.3,0,0,1,5.5-7.7.43.43,0,0,0-.5-.7c-2.9,1.9-4.7,5.1-5.8,8.1a.48.48,0,0,0,.2.6.42.42,0,0,0,.6-.3Zm10.9-7.2a1.61,1.61,0,0,1,.7-.4.4.4,0,0,0,.2-.6.48.48,0,0,0-.6-.2,2.36,2.36,0,0,0-.9.6c-.2.1-.2.4,0,.6s.4.1.6,0Z"/><path id="navet-2" data-name="navet" class="cls-2" d="M181,144.23a4,4,0,0,0,3.8-3,4,4,0,0,0,2.3.8,3.75,3.75,0,0,0,2.8-6.3,3.3,3.3,0,0,0-.2-2.9,2.34,2.34,0,0,0,.2-1.2c7.8-.4,9.6-8.6,5.5-12.6a2.85,2.85,0,0,1,.7-.8,3.77,3.77,0,0,1,1.9,0,.6.6,0,0,0,.4-.1c.2-.1.2-.4,0-.6a4.2,4.2,0,0,0-3.5-1.8,3.42,3.42,0,0,0-2.7,1.5c-4-1.1-6.7.7-8.5,3.6a6.58,6.58,0,0,0,.9,8.1c1.1.6,1.5,1.2,1.2,2.4a2,2,0,0,1-1.3,1.4c-.3.2-.3.7-.4,1.1a2.91,2.91,0,0,1-2.7,2.1c-.2,0-.3.1-.4.3a3.92,3.92,0,0,1-4.7,2.7,3.8,3.8,0,0,1-2.7-4.6,3.72,3.72,0,0,1,4.7-2.6c.2,0,.4,0,.5-.2a3.13,3.13,0,0,1,2.8-1.4.52.52,0,0,0,.4-.2,2,2,0,0,1,.9-.9.45.45,0,0,0-.4-.8,2.54,2.54,0,0,0-1.2,1.1,3.94,3.94,0,0,0-3.3,1.6,4.65,4.65,0,0,0-5.5,3.2c-.6,3.4,1.4,5.6,4,5.9a4.83,4.83,0,0,0,4.5,4.2Zm0-1a3.14,3.14,0,0,1-3-3.3,4.73,4.73,0,0,0,3.9-3.3,3.84,3.84,0,0,0,3.3-2.8c0-.2.1-.5.1-.8a2.8,2.8,0,0,0,1.5-1.7,7.08,7.08,0,0,0,.1-1.4,1.77,1.77,0,0,1,1.7.5,1.66,1.66,0,0,1,.2,1.9.45.45,0,0,0,0,.5,2.32,2.32,0,0,1,.2,2.4.44.44,0,0,0,.1.5,3,3,0,0,1-4.2,4.2,3.34,3.34,0,0,1-.9-2.3c0-.2-.2-.5-.4-.5s-.5.2-.5.4a4.3,4.3,0,0,0,.7,2.5,2.8,2.8,0,0,1-2.8,3.2Zm6.5-3.7a.34.34,0,0,0,.3-.5,15.11,15.11,0,0,1-.4-4.8c0-.2-.1-.5-.4-.5s-.5.1-.5.4a17.32,17.32,0,0,0,.4,5.1A.86.86,0,0,0,187.46,139.53Zm-11.2-3.5h0a20.41,20.41,0,0,0,8.8-5c.2-.1.2-.4,0-.6s-.4-.2-.6,0a19.46,19.46,0,0,1-8.3,4.8.38.38,0,0,0-.3.5.45.45,0,0,0,.4.3Zm13.4-5.4a2.09,2.09,0,0,0-.4-.6,2.75,2.75,0,0,0-1.5-.8,4.82,4.82,0,0,0-1.2,0,2.27,2.27,0,0,0-1.4-1.1c-2.1-2.1-1.8-5.1-.4-7.3a2.74,2.74,0,0,0,1.3.2,1.1,1.1,0,0,1,1,.6,3.24,3.24,0,0,0,2.9,1.7,1.1,1.1,0,0,1,1,.6,3.24,3.24,0,0,0,2.9,1.7,1.1,1.1,0,0,1,1,.6,2.84,2.84,0,0,0,.9,1c-.8,2.2-3.8,3.6-6.1,3.4Zm2.1-1.3c.1-.2.1-.5-.1-.6a14.63,14.63,0,0,0-1.3-.9c-.2-.1-.5-.1-.6.1s-.1.5.1.6a12.49,12.49,0,0,1,1.2.9c.3.1.6.1.7-.1Zm2.7-.6a.38.38,0,0,0,.1-.6,6.75,6.75,0,0,0-1.7-1.7c-.2-.1-.5-.1-.6.1s-.1.5.1.6a7,7,0,0,1,1.5,1.4c.2.3.4.3.6.2Zm-6.1-1.7a.48.48,0,0,0-.2-.6,5.94,5.94,0,0,0-.8-.4.45.45,0,1,0-.4.8,2.51,2.51,0,0,1,.7.4A.48.48,0,0,0,188.36,127Zm7.9-.7a.92.92,0,0,1-.4-.6,2.19,2.19,0,0,0-1.8-1.1,2.25,2.25,0,0,1-2.1-1.2,2.23,2.23,0,0,0-1.8-1,2.17,2.17,0,0,1-2.1-1.3,2.23,2.23,0,0,0-1.8-1,1.7,1.7,0,0,1-.7-.1,5.83,5.83,0,0,1,6.8-1.9c.2.1.4,0,.8-.5a2.7,2.7,0,0,1,3.8-.4,2,2,0,0,0-1.1.2,3.43,3.43,0,0,0-1.2,1.2c-.2.4-.2.7,0,.8a6.13,6.13,0,0,1,1.6,6.9Zm-5.9-1a.61.61,0,0,0-.1-.6,10.93,10.93,0,0,0-1.5-.8.45.45,0,0,0-.4.8,10.93,10.93,0,0,1,1.5.8.37.37,0,0,0,.5-.2Zm-3.6-1.9a.48.48,0,0,0-.2-.6c-.2-.1-.4-.1-.6-.2a.47.47,0,0,0-.3.9,1.42,1.42,0,0,1,.6.2C186.46,123.83,186.66,123.73,186.76,123.43Z"/><g id="cerise-2" data-name="cerise"><path id="Fill-3-2" data-name="Fill-3" class="cls-3" d="M272.86,82.13a5,5,0,0,1,1.2-3.3,5.76,5.76,0,0,1,8.2-.7,5.55,5.55,0,0,1,1.7,2.3,5.53,5.53,0,0,0-2-3.9,5.76,5.76,0,0,0-8.2.7,4.22,4.22,0,0,0-.9,4.9"/><g id="Group-7-2" data-name="Group-7"><path id="Fill-5-2" data-name="Fill-5" class="cls-3" d="M275.36,84.23c1.8,1.5,4.6,2.5,6.6.1a5.11,5.11,0,0,0-7.8-6.6c-2,2.4-.6,4.9,1.2,6.5m7-8.2a6.63,6.63,0,0,1,.8,9.3c-2.2,2.6-5.7,2.6-8.7.1s-3.6-6-1.4-8.6a6.46,6.46,0,0,1,9.3-.8"/></g><path id="Fill-8-2" data-name="Fill-8" class="cls-3" d="M277.66,81.53a3,3,0,0,1,1.2,2.2.75.75,0,0,1-1.5-.1s0-.5-.7-1a2.19,2.19,0,0,0-1.1-.5c-.4,0-.8-.2-.8-.6s.2-.8.6-.8c.1-.1,1.1-.2,2.3.8"/><path id="Fill-10-2" data-name="Fill-10" class="cls-3" d="M279.46,81.33a3.12,3.12,0,0,1,1.1,2.5.55.55,0,1,1-1.1-.1,2.16,2.16,0,0,0-.8-1.6.61.61,0,0,1-.1-.8.75.75,0,0,1,.9,0h0"/><path id="Fill-14-2" data-name="Fill-14" class="cls-3" d="M262.26,73.23a5,5,0,0,1,1.2-3.3,5.76,5.76,0,0,1,8.2-.7,5.55,5.55,0,0,1,1.7,2.3,5.53,5.53,0,0,0-2-3.9,5.76,5.76,0,0,0-8.2.7,4.33,4.33,0,0,0-.9,4.9"/><g id="Group-18-2" data-name="Group-18"><path id="Fill-16-2" data-name="Fill-16" class="cls-3" d="M264.77,75.23c1.8,1.5,4.6,2.5,6.6.1a5.11,5.11,0,0,0-7.8-6.6c-2,2.4-.6,5,1.2,6.5m7-8.2a6.63,6.63,0,0,1,.8,9.3c-2.2,2.6-5.7,2.6-8.7.1s-3.6-6-1.4-8.6a6.54,6.54,0,0,1,9.3-.8"/></g><path id="Fill-19-2" data-name="Fill-19" class="cls-3" d="M267.06,72.53a3,3,0,0,1,1.2,2.2.75.75,0,0,1-1.5-.1s0-.5-.7-1a1.9,1.9,0,0,0-1.1-.5c-.4,0-.8-.2-.8-.6s.2-.8.6-.8a3,3,0,0,1,2.3.8"/><path id="Fill-21-2" data-name="Fill-21" class="cls-3" d="M269,72.43a3.12,3.12,0,0,1,1.1,2.5.55.55,0,1,1-1.1-.1,2.16,2.16,0,0,0-.8-1.6.61.61,0,0,1-.1-.8.62.62,0,0,1,.9,0h0"/><path id="Fill-23-2" data-name="Fill-23" class="cls-3" d="M277.46,81.73h0a.9.9,0,0,1,.1,1.1c-1.4,1.6-3.1,1.9-4.8,2.2-2.4.4-5,.9-7.4,5.3a.74.74,0,1,1-1.3-.7c2.8-5.1,5.9-5.6,8.5-6,1.6-.3,2.9-.5,3.9-1.7a.68.68,0,0,1,1-.2"/><path id="Fill-25-2" data-name="Fill-25" class="cls-3" d="M267.06,72.53a1,1,0,0,1,.2.9c0,.1-7.2,14.3-.3,18.4a.72.72,0,0,1-.8,1.2c-8-4.9-.5-19.8-.2-20.4a.69.69,0,0,1,1-.3c0,.2.1.2.1.2"/><path id="Fill-29-2" data-name="Fill-29" class="cls-3" d="M255,85.83l8.9,4.5c-.1-.1.3-7.6-8.9-4.5"/><path id="Fill-31-2" data-name="Fill-31" class="cls-3" d="M263,89.83a4.4,4.4,0,0,0-1.6-3.3c-1.2-.9-3.1-1-5.6-.3.9,2.4,2.1,3.9,3.6,4.3a4.18,4.18,0,0,0,3.6-.7m-.4-4.2a6.49,6.49,0,0,1,1.9,4.7.55.55,0,0,1-.3.5A6.13,6.13,0,0,1,259,92q-3.15-.9-4.8-6a.72.72,0,0,1,.5-.9c3.4-1.1,5.9-1,7.7.3a.22.22,0,0,1,.2.2"/></g><path id="carote-2" data-name="carote" class="cls-3" d="M158.06,45.63a3,3,0,0,0,2.3-.7,6.85,6.85,0,0,0,2-2.9l.3-1.2a.65.65,0,1,0-1.3-.1,1.88,1.88,0,0,1-.2.8,6.43,6.43,0,0,1-1.7,2.4c-.6.5-1.1.6-1.4.4a.79.79,0,0,1-.5-.6,5.42,5.42,0,0,1-.2-1.5,4.05,4.05,0,0,0,.9-.5,9.78,9.78,0,0,0,3.2-3.2,5,5,0,0,0,1.3.5,5.76,5.76,0,0,0,4-.7c.6-.4,2-1.3,3.7-2.6s3.8-2.9,5.8-4.5a66.83,66.83,0,0,0,5.2-4.6,12.41,12.41,0,0,0,1.6-1.9,3.55,3.55,0,0,0,.4-.9,1.21,1.21,0,0,0-.1-1,1.56,1.56,0,0,0-.8-.6,2.77,2.77,0,0,0-.9-.1,12,12,0,0,0-2.4.4,59,59,0,0,0-6.6,2.3c-2.4.9-4.8,2-6.8,2.9s-3.5,1.6-4.1,2a5.49,5.49,0,0,0-2.5,3.3,5.14,5.14,0,0,0-2.7-1.2,9.75,9.75,0,0,0-3.5.3,2.7,2.7,0,0,0-1.9,2.1,2.28,2.28,0,0,0,.7,1.9,7.27,7.27,0,0,0,.9.8,10.18,10.18,0,0,0-1.8,1.8,7,7,0,0,0-.9,1.7,2.46,2.46,0,0,0,.2,1.7,2.43,2.43,0,0,0,1.4,1,11.48,11.48,0,0,0,1.9.1,8.6,8.6,0,0,0,2.5-.7,3.19,3.19,0,0,0,.3,1.4,2.1,2.1,0,0,0,1.7,1.7Zm-6-3.5a.92.92,0,0,1-.6-.4.82.82,0,0,1,0-.7,4.21,4.21,0,0,1,.7-1.3,12.79,12.79,0,0,1,3.4-2.9,7.58,7.58,0,0,1,3.8-.9c0,.1.1.2.1.4l-1.9,1.1a.65.65,0,0,0-.2.9,1.38,1.38,0,0,0,.4.3h.5l1.9-1.1.3.3a9.18,9.18,0,0,1-2.7,2.9,12.31,12.31,0,0,1-4.2,1.6,13.89,13.89,0,0,1-1.5-.2Zm1.9-5.8a2.42,2.42,0,0,1-1.1-.8c-.3-.3-.4-.6-.3-.8s.4-.7,1.1-1a6.48,6.48,0,0,1,2.9-.3,4.57,4.57,0,0,1,2.4,1.2,8.79,8.79,0,0,0-4,1.2,3.13,3.13,0,0,0-1,.5Zm9.1,1.6a3.2,3.2,0,0,1-2.3-1.6,3.87,3.87,0,0,1,1.7-5.2c.2-.1.7-.4,1.3-.7l1.6,2.6c.1.1.2.3.4.3h.5a.65.65,0,0,0,.2-.9l-1.5-2.6c.5-.2.9-.4,1.5-.7,1.5-.6,3.2-1.4,4.9-2.1l1.2,2c.1.1.2.3.4.3a1.09,1.09,0,0,0,.5-.1.65.65,0,0,0,.2-.9l-1.1-1.8c.2-.1.4-.1.6-.2a54.65,54.65,0,0,1,6.4-2.2,14.31,14.31,0,0,1,2.1-.4h.5c0,.1-.1.2-.2.4a8,8,0,0,1-1.4,1.7,64.37,64.37,0,0,1-5.1,4.5c-1.3,1-2.5,2-3.7,2.9l-1.5-2.6a.65.65,0,0,0-1.1.7l1.6,2.7c-.3.2-.7.5-1,.7a43.49,43.49,0,0,1-3.6,2.5,4.16,4.16,0,0,1-3.1.7Z"/><path id="champi-2" data-name="champi" class="cls-3" d="M215.66,34.93a9.59,9.59,0,0,0,6.3-2.3,8.48,8.48,0,0,0,2.8-6.6h0a2.59,2.59,0,0,0-1.4-2.4,3,3,0,0,0-2.6,0h0a10.37,10.37,0,0,1-5.1,1.1h-1.5a24.33,24.33,0,0,0-1.1-7h0a2,2,0,0,1-.1-.8,2.7,2.7,0,0,1,5.4,0,2.2,2.2,0,0,1-.1.8,23.52,23.52,0,0,0-1,5.9l-.1,1.1h.4l.7-.1v-.9a22.76,22.76,0,0,1,1-5.7,3.75,3.75,0,0,0,.1-1.1,3.6,3.6,0,0,0-7.2,0,4.48,4.48,0,0,0,.1,1.1h0a24,24,0,0,1,1,6.6,6.18,6.18,0,0,1-2.7-.9.76.76,0,0,0-.5-.2,2.77,2.77,0,0,0-.1-.9,2.22,2.22,0,0,0-1.7-1.4,1.91,1.91,0,0,1-1.5-.4.88.88,0,0,1,.1-.7c1.3-1.3,2.9-2.5,4.1-3.7a3.19,3.19,0,0,0-4.9-4.1,5.58,5.58,0,0,0-.5.8c-.6,1.2-1.5,2.8-2.3,4.2a.78.78,0,0,1-.7.3.74.74,0,0,1-.6-.5,3.54,3.54,0,0,0-.3-1.1,2.07,2.07,0,0,0-1.7-1.4,2.66,2.66,0,0,0-2.2.9,6.91,6.91,0,0,0-1.6,4.9,7.64,7.64,0,0,0,8.2,7.2,5.13,5.13,0,0,0,2.4-.7,11.15,11.15,0,0,0,2.7-2,.52.52,0,0,0,.2-.4c.1,0,.2.1.3.1h0a11.27,11.27,0,0,0,5.6,1.2,11.52,11.52,0,0,0,5.6-1.2h0a1.72,1.72,0,0,1,1.7,0,1.77,1.77,0,0,1,.9,1.6h0a7.57,7.57,0,0,1-2.5,5.9,9.42,9.42,0,0,1-5.6,2.1,8.19,8.19,0,0,1-8-6.2,4.05,4.05,0,0,0-.3-1.2h0l-.4.2-.3.1h0a8.66,8.66,0,0,0,.2,1,9,9,0,0,0,8.8,6.8Zm3.7-3a1.4,1.4,0,1,0,0-2.8,1.37,1.37,0,0,0-1.4,1.4A1.43,1.43,0,0,0,219.36,31.93Zm0-.9a.4.4,0,1,1,.4-.4A.43.43,0,0,1,219.36,31Zm-2.7-1.7a1.43,1.43,0,0,0,1.4-1.4,1.4,1.4,0,1,0-1.4,1.4Zm4.4-.4a1.43,1.43,0,0,0,1.4-1.4,1.4,1.4,0,0,0-2.8,0A1.59,1.59,0,0,0,221.06,28.93Zm-4.4-.5a.4.4,0,1,1,.4-.4A.43.43,0,0,1,216.66,28.43Zm4.4-.5a.4.4,0,1,1,.4-.4A.37.37,0,0,1,221.06,27.93Zm-17.3-1.3a5.91,5.91,0,0,1-4.1-1.6,6.78,6.78,0,0,1-2.4-4.8,6,6,0,0,1,1.4-4.2,1.82,1.82,0,0,1,1.4-.6,1.59,1.59,0,0,1,1,.8l.2,1.1a1.63,1.63,0,0,0,1.3,1.1,1.73,1.73,0,0,0,1.6-.7l2.4-4.4.3-.6a2.24,2.24,0,0,1,3.2-.3,2.12,2.12,0,0,1,.2,3.1c-1.1,1.4-2.9,2.5-4,3.7a1.65,1.65,0,0,0-.2,1.8,2.21,2.21,0,0,0,2,.9,1.33,1.33,0,0,1,1,.8,1.53,1.53,0,0,1-.2,1.3,7.44,7.44,0,0,1-4.5,2.4.73.73,0,0,1-.6.2Z"/><g id="fraise-2" data-name="fraise"><path id="path-1-3" data-name="path-1" class="cls-2" d="M217.16,101.13c5.5-1.7,14.1,6.3,15.7,11.7s-3.1,10.7-8.4,12.3-12.1,0-13.8-5.5S211.66,102.73,217.16,101.13Zm6.9,22.6c4.7-1.4,8.8-5.8,7.4-10.5s-9.3-12.1-13.9-10.8-7,11.9-5.5,16.6S219.36,125.13,224.06,123.73Z"/><path id="path-2-3" data-name="path-2" class="cls-2" d="M231.16,120.83a1.7,1.7,0,0,1,.7.1.57.57,0,0,1,.2.7c-.3,2.3-2.3,3.6-3.6,4.2.6.5,1.7,1.2,2.6,1.8a.6.6,0,0,1,.3.6.71.71,0,0,1-.3.6,1.49,1.49,0,0,1-.7.3c-1.6.5-4-.4-5.1-.9-.7,1-2.2,3.1-3.7,3.6a2.2,2.2,0,0,1-.8.1.71.71,0,0,1-.6-.3.85.85,0,0,1,0-.7c.4-.9.8-1.9,1.1-2.7a5,5,0,0,1-5.3-1.7.82.82,0,0,1-.1-.7c0-.2.2-.4.5-.5l3.5-1.1h.1l3.9-.3a.49.49,0,0,0,.3-.1l3.3-1.8h.1l3.6-1.2Zm-11,4.9-2.2.7a3.69,3.69,0,0,0,3.2.3,4.54,4.54,0,0,0,.8-.3.64.64,0,0,1,.6,0,1,1,0,0,1,.4.5,5.9,5.9,0,0,1-.7,2.8,9.55,9.55,0,0,0,2-2.6.75.75,0,0,1,.5-.7h0a.83.83,0,0,1,.8.3,10.89,10.89,0,0,0,3.2,1,9.63,9.63,0,0,1-2.2-1.9c-.1-.2,0-.4,0-.6a.7.7,0,0,1,.5-.4h.1a5.73,5.73,0,0,0,3.1-2.1l-2,.7-3.3,1.8h-.1a.44.44,0,0,0-.3.1h-.2Z"/><path id="path-3-3" data-name="path-3" class="cls-2" d="M228,115a.79.79,0,1,1,1,.5A.88.88,0,0,1,228,115Z"/><path id="path-4-3" data-name="path-4" class="cls-2" d="M223.36,116.43a.79.79,0,1,1,1,.5A.88.88,0,0,1,223.36,116.43Z"/><path id="path-5-3" data-name="path-5" class="cls-2" d="M218.76,117.83a.79.79,0,1,1,1,.5A.83.83,0,0,1,218.76,117.83Z"/><path id="path-6-3" data-name="path-6" class="cls-2" d="M214.06,119.23a.79.79,0,1,1,1,.5A.88.88,0,0,1,214.06,119.23Z"/><path id="path-7-3" data-name="path-7" class="cls-2" d="M224.86,112a.79.79,0,1,1,1,.5A.83.83,0,0,1,224.86,112Z"/><path id="path-8-3" data-name="path-8" class="cls-2" d="M220.16,113.43a.79.79,0,1,1,1,.5C220.76,114.13,220.36,113.83,220.16,113.43Z"/><path id="path-9-3" data-name="path-9" class="cls-2" d="M215.56,114.83a.79.79,0,1,1,1,.5A.69.69,0,0,1,215.56,114.83Z"/><path id="path-10-2" data-name="path-10" class="cls-2" d="M227,119a.79.79,0,1,1,1,.5A.88.88,0,0,1,227,119Z"/><path id="path-11-2" data-name="path-11" class="cls-2" d="M222.36,120.43a.79.79,0,1,1,1,.5A.75.75,0,0,1,222.36,120.43Z"/><path id="path-12-2" data-name="path-12" class="cls-2" d="M217.66,121.83a.79.79,0,1,1,1,.5C218.26,122.53,217.86,122.23,217.66,121.83Z"/><path id="path-13-2" data-name="path-13" class="cls-2" d="M221.36,108a.79.79,0,1,1,1,.5A.88.88,0,0,1,221.36,108Z"/><path id="path-14-2" data-name="path-14" class="cls-2" d="M216.76,109.43a.79.79,0,1,1,1,.5A.72.72,0,0,1,216.76,109.43Z"/><path id="path-15-2" data-name="path-15" class="cls-2" d="M217.66,105.13a.79.79,0,1,1,1,.5C218.26,105.83,217.86,105.63,217.66,105.13Z"/></g><g id="raisin-2" data-name="raisin"><path id="path-1-4" data-name="path-1" class="cls-2" d="M256.46,25.43a3.65,3.65,0,1,1-1.9,4.8A3.71,3.71,0,0,1,256.46,25.43Zm2.3,5.4a2.22,2.22,0,1,0-2.9-1.2A2.3,2.3,0,0,0,258.76,30.83Z"/><path id="path-2-4" data-name="path-2" class="cls-2" d="M251,27.73a3.65,3.65,0,1,1-1.9,4.8A3.71,3.71,0,0,1,251,27.73Zm2.3,5.3a2.22,2.22,0,1,0-2.9-1.2A2.13,2.13,0,0,0,253.26,33Z"/><path id="path-3-4" data-name="path-3" class="cls-2" d="M245.46,30a3.65,3.65,0,1,1-1.9,4.8A3.55,3.55,0,0,1,245.46,30Zm2.3,5.4a2.22,2.22,0,1,0-2.9-1.2A2.17,2.17,0,0,0,247.76,35.43Z"/><path id="path-4-4" data-name="path-4" class="cls-2" d="M251.76,21.73a3.65,3.65,0,1,1-1.9,4.8A3.63,3.63,0,0,1,251.76,21.73Zm2.2,5.4a2.22,2.22,0,1,0-2.9-1.2A2.34,2.34,0,0,0,254,27.13Z"/><path id="path-5-4" data-name="path-5" class="cls-2" d="M246.16,24a3.65,3.65,0,1,1-1.9,4.8A3.71,3.71,0,0,1,246.16,24Zm2.3,5.4a2.22,2.22,0,1,0-2.9-1.2A2.24,2.24,0,0,0,248.46,29.43Z"/><path id="path-6-4" data-name="path-6" class="cls-2" d="M256,31.93a3.65,3.65,0,1,1-1.9,4.8A3.71,3.71,0,0,1,256,31.93Zm2.3,5.4a2.22,2.22,0,1,0-2.9-1.2A2.24,2.24,0,0,0,258.26,37.33Z"/><path id="path-7-4" data-name="path-7" class="cls-2" d="M250.46,34.33a3.65,3.65,0,1,1-1.9,4.8A3.56,3.56,0,0,1,250.46,34.33Zm2.3,5.3a2.22,2.22,0,1,0-2.9-1.2A2.16,2.16,0,0,0,252.76,39.63Z"/><path id="path-8-4" data-name="path-8" class="cls-2" d="M247.06,18a3.65,3.65,0,1,1-1.9,4.8A3.59,3.59,0,0,1,247.06,18Zm2.3,5.3a2.22,2.22,0,1,0-2.9-1.2A2.13,2.13,0,0,0,249.36,23.33Z"/><path id="path-9-4" data-name="path-9" class="cls-2" d="M254.26,35.83a1,1,0,0,1,.9.2c.2.3,5.4,7.8,1,11.3a.71.71,0,0,1-.9-1.1c3.3-2.6-1.3-9.2-1.3-9.3a.85.85,0,0,1,.3-1.1Z"/></g></g><g id="bg"><path id="tomate-3" data-name="tomate" class="cls-2" d="M53.46,217.23a6.39,6.39,0,0,1-1.7-5,7.73,7.73,0,0,1-4.3-1.9,5.1,5.1,0,0,1-1.7-2.4,1.34,1.34,0,0,1,.2-.9,11.17,11.17,0,0,1,0-7,10.56,10.56,0,1,1,15.5,12.6c0,.6-.5.9-1,1.1a9,9,0,0,1-1.9.4,7.47,7.47,0,0,1-3.9-.6,2.13,2.13,0,0,0,.7,1.2c.1.1.2.4,0,.5l-1.5,1.9c0,.4-.3.3-.4.1Zm1.3-2.2a3.58,3.58,0,0,1-.9-2.1.37.37,0,0,1,.6-.3,7,7,0,0,0,4.2.9,3.81,3.81,0,0,0,1.6-.3c1.3-.4-.5-1.4-1-1.7a6.47,6.47,0,0,1-.9.8.35.35,0,0,1-.5-.5,18.48,18.48,0,0,0,1.4-1.4c.8-1.2.5-1.7-.7-1.7a18,18,0,0,0-2.2.2v.6a.4.4,0,0,1-.8,0v-1.9c0-.5-.2-1.1-.5-1.2s-.8.2-1.2.6-.8,1-1.2,1.5a.36.36,0,0,1-.6-.4c.1-.1.2-.3.4-.5a12.07,12.07,0,0,0-1.6-1.6,9.22,9.22,0,0,0-.8-.5c-.9-.4-.7,2.7-.6,3.2,0,.2-.1.4-.3.4s-.4-.1-.4-.3c0-.4-.1-.8-.1-1.2a6.88,6.88,0,0,0-1.3-.2c-.8,0-.8.3-.5.9a6.91,6.91,0,0,0,1.2,1.4,7.25,7.25,0,0,0,4.2,1.8.37.37,0,0,1,.4.4,5.72,5.72,0,0,0,1.2,4.3Zm-5.5-10.2c.7-.4,1.5.2,2,.6a12.07,12.07,0,0,1,1.6,1.6l.4-.4c.5-.5,1.2-1.2,2-.9s.9,1.3,1,2v.6a16.35,16.35,0,0,1,2.2-.2,4.87,4.87,0,0,1,1.2.1,1.56,1.56,0,0,1,.8.6c.3.6-.3,1.6-.7,2.1a5.83,5.83,0,0,1,1.5,1.1,9.32,9.32,0,0,0,3.9-5,10,10,0,0,0-6-12.6,9.8,9.8,0,0,0-12.6,6,9.38,9.38,0,0,0,0,6.4,5.31,5.31,0,0,1,1.8.1c.3-.9.3-1.7.9-2.1Zm12.5,5.1a.45.45,0,0,1,0-.5,6.8,6.8,0,0,0,2.1-4,8.63,8.63,0,0,0-.3-4.3.38.38,0,0,1,.7-.3,9.06,9.06,0,0,1,.4,4.7,7.66,7.66,0,0,1-2.4,4.5c-.2.1-.4.1-.5-.1Zm.9-11-.6-.9c-.1-.2-.1-.4.1-.5s.4-.1.5.1.4.7.6,1a.44.44,0,0,1-.1.5.37.37,0,0,1-.5-.2Z"/><path id="poivron-3" data-name="poivron" class="cls-2" d="M135.06,292.63a7,7,0,0,1-3.7-1.5,9.15,9.15,0,0,0-.1,1.7,1.06,1.06,0,0,1-1.2,1.2l-1.1-.1a1.42,1.42,0,0,1-.6-.2h0a1.33,1.33,0,0,1-.6-1,7.41,7.41,0,0,1,.6-3.6,6.18,6.18,0,0,1-2.7-2.6,4.55,4.55,0,0,1-.6-3l-.3-.6a4.94,4.94,0,0,1,.4-3.5,13.71,13.71,0,0,1,3.7-4.3h0c3.1-2.5,5-3.9,6.5-4.4a3.26,3.26,0,0,1,2.2.1,5.8,5.8,0,0,1,1.5,1.3,3,3,0,0,1,3.9,2.4,4.94,4.94,0,0,1,1.8.8,3,3,0,0,1,1.1,1.9c.2,1.7-.2,3.9-1.2,7.8h0a14.68,14.68,0,0,1-2.3,5.3,4.22,4.22,0,0,1-3,1.9,4.87,4.87,0,0,1-1.2-.1,7.49,7.49,0,0,1-3.1.5Zm-4.9.1a7.93,7.93,0,0,1,1.2-4.6,2,2,0,0,1-.9-.9,8,8,0,0,0-1.6,5c0,.6.8.6,1.3.5Zm6.8-1.5a5.05,5.05,0,0,1-1.8-2.8,5,5,0,0,1-2.7.2,7.46,7.46,0,0,0-.7,1.2A5.41,5.41,0,0,0,137,291.23Zm-10.9-6.8a5.27,5.27,0,0,0,2.1,3.1h0l.6.3c.3-.5.7-1.1,1.1-1.7a5,5,0,0,1-.2-1.2,5.52,5.52,0,0,1-3.6-.5Zm9,2.8a12.63,12.63,0,0,0,3.3-3.2c2-2.9,3.6-6.9,3.5-9.7a1.48,1.48,0,0,0-.9-1.3,1.84,1.84,0,0,0-1.6-.2c-2.5,1.1-5.5,4.2-7.3,7.3a11.08,11.08,0,0,0-1.5,4.3,2.93,2.93,0,0,0,1.4,2.8A2.87,2.87,0,0,0,135.06,287.23Zm-7.8-3.5a4.78,4.78,0,0,0,2.4.1,11.83,11.83,0,0,1,1.5-4.2,20,20,0,0,1,6.8-7.3,3.24,3.24,0,0,0-.9-.8,1.69,1.69,0,0,0-1.4,0c-1.2.3-3.1,1.7-6.1,4.2a14.5,14.5,0,0,0-3.5,4,3.27,3.27,0,0,0-.4,2.6,2.48,2.48,0,0,0,1.6,1.4Zm14.1,5.7a13.41,13.41,0,0,0,2.1-4.9c1-3.8,1.4-6.1,1.2-7.3a2,2,0,0,0-.6-1.2,2.26,2.26,0,0,0-1.1-.5,19,19,0,0,1-3.7,9.3,13.87,13.87,0,0,1-3.2,3.2,4.32,4.32,0,0,0,1.2,2.1c1.6,1.4,3.2.4,4.1-.7Zm-2.8-.1a.65.65,0,0,1,.2-.8c.1,0,.2-.1.3-.2a.57.57,0,1,1,.7.9.52.52,0,0,1-.4.2C139,289.73,138.66,289.63,138.56,289.33Zm1.7-1.4a.61.61,0,0,1-.1-.8,13.65,13.65,0,0,0,1.8-4.4.57.57,0,1,1,1.1.3,16.36,16.36,0,0,1-2,4.8A.59.59,0,0,1,140.26,287.93Z"/><path id="aubergine-3" data-name="aubergine" class="cls-2" d="M51.06,165.13a6.58,6.58,0,0,1-.4-1.5,4.15,4.15,0,0,0-.3-1.6,2.3,2.3,0,0,1-2.5-1.8,5.56,5.56,0,0,0-1.8-2.8.45.45,0,0,1,.2-.8h1a8.81,8.81,0,0,0-3.2-7c-1.7-1.6-3.6-3.1-4.1-6.2a3.7,3.7,0,0,1,1.5-3.8,9.57,9.57,0,0,1,4.3-1.5h0a8.91,8.91,0,0,1,4.5.7,6.41,6.41,0,0,1,4.7-.2,9.14,9.14,0,0,1,4,2.8,27,27,0,0,1,5,8.2,2.18,2.18,0,0,1,.5-.4c.3-.2.8,0,.7.4a5.33,5.33,0,0,0,.8,3,3.26,3.26,0,0,1,.4,1.4,2.08,2.08,0,0,1-.7,1.5,5.38,5.38,0,0,0,.9,1.2,5.67,5.67,0,0,1,.8,1.3,1.24,1.24,0,0,1-.4,1.5,1.21,1.21,0,0,1-1.6,0,3.46,3.46,0,0,1-1.1-1,10.59,10.59,0,0,0-1-1.2,2.41,2.41,0,0,1-1.6.3,5.17,5.17,0,0,1-1.3-.6,5,5,0,0,0-2.7-1.4c-.4,0-.5-.5-.2-.8a5.58,5.58,0,0,1,.8-.5,9.22,9.22,0,0,0-3.2-3.3,31.45,31.45,0,0,1-.3,4.4,1.7,1.7,0,0,1,.7-.1c.4,0,.7.4.4.7a5.08,5.08,0,0,0-.8,3.2,2.82,2.82,0,0,1-.4,1.5,3,3,0,0,1-1.4,1,9.85,9.85,0,0,0,.2,1.7,4.3,4.3,0,0,1,0,1.6,1.27,1.27,0,0,1-1.1,1.1,2.68,2.68,0,0,1-1.3-1Zm1.6-.6v-1.3a7.84,7.84,0,0,1-.2-1.4,1.14,1.14,0,0,1,.6-1.2,1.61,1.61,0,0,0,1-.7c.6-1.1.1-2.9,1-3.7a3.45,3.45,0,0,0-2.1,1.2c-.2.2,0,.6,0,.8s-.1.5-.4.5-.5-.1-.5-.4a5.87,5.87,0,0,0-.6-2c-.1-.2-.2-.4-.4-.4s-.2.2-.2.5a7.38,7.38,0,0,0,0,2.1c0,.2-.1.5-.4.5s-.5-.1-.5-.4a1.55,1.55,0,0,0-.2-.8,3.87,3.87,0,0,0-2.3-.5c1.1.7,1.3,2.2,2,3.2a1.44,1.44,0,0,0,1.1.3,1,1,0,0,1,.9.9c.1.4.1.9.2,1.4a6.81,6.81,0,0,0,.3,1.2C52.16,165,52.66,165,52.66,164.53Zm13.9-6.4a6.42,6.42,0,0,0-.6-1c-.3-.4-.6-.7-.9-1.1a1.23,1.23,0,0,1-.1-1.3,1.35,1.35,0,0,0,.5-1,1.61,1.61,0,0,0-.3-.9,4.81,4.81,0,0,1-.8-2.2c-.7.9-1.1,1.6-.5,2.3a.42.42,0,1,1-.6.6,10,10,0,0,0-1.5-1.4c-.2-.1-.4-.2-.5-.1v.5a10.42,10.42,0,0,0,1,1.8.63.63,0,0,1,0,.6.5.5,0,0,1-.6,0c-.5-.8-2-.3-2.7.1.9,0,2.1,1.3,3.2,1.7a2.8,2.8,0,0,0,1.1-.2,1.05,1.05,0,0,1,1.2.3,10.63,10.63,0,0,1,.9,1.1,2.94,2.94,0,0,0,.8.8c.2.1.6-.2.4-.6Zm-15.7-3.2c.9-.1,1.4,1,1.7,1.7a4.19,4.19,0,0,1,1.4-.9c.5-3.3.7-7.7-.3-11.1a8.3,8.3,0,0,0-2.5-4.2l-.9-.6h0a6.61,6.61,0,0,0-4.1-.7,9.4,9.4,0,0,0-3.9,1.3,2.83,2.83,0,0,0-1.1,3c.4,2.8,2.1,4,3.8,5.6a10,10,0,0,1,3.5,7.7,4.19,4.19,0,0,1,1.5.4c-.2-1,.1-2.1.9-2.2Zm9.8-1.5a6.58,6.58,0,0,1-.4-1.5.83.83,0,0,1,.3-.8.78.78,0,0,1,.8-.1,3.29,3.29,0,0,1,1.3.7,3.69,3.69,0,0,1,.7-1.4,27.91,27.91,0,0,0-5-8.4,8.7,8.7,0,0,0-3.7-2.5,6.51,6.51,0,0,0-3.4-.1c.1,0,.1.1.2.2a9,9,0,0,1,2.8,4.7,26.08,26.08,0,0,1,.8,5.6,9.21,9.21,0,0,1,4,3.9c.7-.1,1.1-.2,1.6-.3Zm-8.2.7c-.2,0-.4-.3-.4-.5.5-3.3.6-7-.9-10a.45.45,0,0,1,.8-.4c1.7,3.3,1.6,7.1,1,10.5C52.86,154.13,52.66,154.23,52.46,154.13Zm8.5-4.5a15.3,15.3,0,0,0-5.5-7.7.43.43,0,0,1,.5-.7c2.9,1.9,4.7,5.1,5.8,8.1a.48.48,0,0,1-.2.6c-.3,0-.5,0-.6-.3Zm-10.9-7.3a1.61,1.61,0,0,0-.7-.4.45.45,0,1,1,.4-.8,2.36,2.36,0,0,1,.9.6c.2.1.2.4,0,.6s-.4.2-.6,0Z"/><path id="navet-3" data-name="navet" class="cls-2" d="M35.46,240.83a4,4,0,0,1-3.8-3,4,4,0,0,1-2.3.8,3.75,3.75,0,0,1-2.8-6.3,3.3,3.3,0,0,1,.2-2.9,2.34,2.34,0,0,1-.2-1.2c-7.8-.4-9.6-8.6-5.5-12.6a2.85,2.85,0,0,0-.7-.8,3.77,3.77,0,0,0-1.9,0,.6.6,0,0,1-.4-.1c-.2-.1-.2-.4,0-.6a4.2,4.2,0,0,1,3.5-1.8,3.42,3.42,0,0,1,2.7,1.5c4-1.1,6.7.7,8.5,3.6a6.58,6.58,0,0,1-.9,8.1c-1.1.6-1.5,1.2-1.2,2.4a2,2,0,0,0,1.3,1.4c.3.2.3.7.4,1.1a2.91,2.91,0,0,0,2.7,2.1c.2,0,.3.1.4.3a3.92,3.92,0,0,0,4.7,2.7,3.8,3.8,0,0,0,2.7-4.6,3.72,3.72,0,0,0-4.7-2.6c-.2,0-.4,0-.5-.2a3.13,3.13,0,0,0-2.8-1.4.52.52,0,0,1-.4-.2,2,2,0,0,0-.9-.9.45.45,0,1,1,.4-.8,2.54,2.54,0,0,1,1.2,1.1,3.94,3.94,0,0,1,3.3,1.6,4.65,4.65,0,0,1,5.5,3.2c.6,3.4-1.4,5.6-4,5.9a4.83,4.83,0,0,1-4.5,4.2Zm0-.9a3.14,3.14,0,0,0,3-3.3,4.73,4.73,0,0,1-3.9-3.3,3.84,3.84,0,0,1-3.3-2.8c0-.2-.1-.5-.1-.8a2.8,2.8,0,0,1-1.5-1.7,7.08,7.08,0,0,1-.1-1.4,1.77,1.77,0,0,0-1.7.5,1.66,1.66,0,0,0-.2,1.9.45.45,0,0,1,0,.5,2.32,2.32,0,0,0-.2,2.4.44.44,0,0,1-.1.5,3,3,0,0,0,4.2,4.2,3.34,3.34,0,0,0,.9-2.3c0-.2.2-.5.4-.5s.5.2.5.4a4.3,4.3,0,0,1-.7,2.5c0,2,1.2,3.2,2.8,3.2Zm-6.5-3.7a.34.34,0,0,1-.3-.5,15.11,15.11,0,0,0,.4-4.8c0-.2.1-.5.4-.5s.5.1.5.4a17.32,17.32,0,0,1-.4,5.1A.71.71,0,0,1,29,236.23Zm11.3-3.5h0a20.41,20.41,0,0,1-8.8-5c-.2-.1-.2-.4,0-.6a.37.37,0,0,1,.6,0,19.46,19.46,0,0,0,8.3,4.8.38.38,0,0,1,.3.5c-.1.1-.3.3-.4.3Zm-13.5-5.4a2.09,2.09,0,0,1,.4-.6,2.75,2.75,0,0,1,1.5-.8,4.82,4.82,0,0,1,1.2,0,2.27,2.27,0,0,1,1.4-1.1c2.1-2.1,1.8-5.1.4-7.3a2.74,2.74,0,0,1-1.3.2,1.1,1.1,0,0,0-1,.6,3.24,3.24,0,0,1-2.9,1.7,1.1,1.1,0,0,0-1,.6,3.24,3.24,0,0,1-2.9,1.7,1.1,1.1,0,0,0-1,.6,2.84,2.84,0,0,1-.9,1c.8,2.2,3.8,3.6,6.1,3.4Zm-2.1-1.3c-.1-.2-.1-.5.1-.6a14.63,14.63,0,0,1,1.3-.9c.2-.1.5-.1.6.1s.1.5-.1.6a12.49,12.49,0,0,0-1.2.9.76.76,0,0,1-.7-.1Zm-2.7-.6a.38.38,0,0,1-.1-.6,6.75,6.75,0,0,1,1.7-1.7c.2-.1.5-.1.6.1s.1.5-.1.6a7,7,0,0,0-1.5,1.4c-.2.3-.4.3-.6.2Zm6.1-1.7a.48.48,0,0,1,.2-.6,5.94,5.94,0,0,1,.8-.4.45.45,0,0,1,.4.8,2.51,2.51,0,0,0-.7.4A.48.48,0,0,1,28.06,223.73Zm-7.9-.7a.92.92,0,0,0,.4-.6,2.19,2.19,0,0,1,1.8-1.1,2.25,2.25,0,0,0,2.1-1.2,2.23,2.23,0,0,1,1.8-1,2.17,2.17,0,0,0,2.1-1.3,2.23,2.23,0,0,1,1.8-1,1.7,1.7,0,0,0,.7-.1,5.83,5.83,0,0,0-6.8-1.9c-.2.1-.4,0-.8-.5a2.7,2.7,0,0,0-3.8-.4,2,2,0,0,1,1.1.2,3.43,3.43,0,0,1,1.2,1.2c.2.4.2.7,0,.8a6.29,6.29,0,0,0-1.6,6.9Zm5.9-1a.61.61,0,0,1,.1-.6,10.93,10.93,0,0,1,1.5-.8.45.45,0,0,1,.4.8,10.93,10.93,0,0,0-1.5.8.37.37,0,0,1-.5-.2Zm3.6-1.9a.48.48,0,0,1,.2-.6c.2-.1.4-.1.6-.2a.47.47,0,0,1,.3.9,1.42,1.42,0,0,0-.6.2C30,220.53,29.76,220.43,29.66,220.13Z"/><g id="cerise-3" data-name="cerise"><path id="Fill-3-3" data-name="Fill-3" class="cls-3" d="M271.36,279.93a5,5,0,0,0-1.2-3.3,5.76,5.76,0,0,0-8.2-.7,5.55,5.55,0,0,0-1.7,2.3,5.53,5.53,0,0,1,2-3.9,5.76,5.76,0,0,1,8.2.7,4.19,4.19,0,0,1,.9,4.9"/><g id="Group-7-3" data-name="Group-7"><path id="Fill-5-3" data-name="Fill-5" class="cls-3" d="M268.86,282c-1.8,1.5-4.6,2.5-6.6.1a5.11,5.11,0,1,1,7.8-6.6c2,2.3.6,4.9-1.2,6.5m-7-8.3a6.63,6.63,0,0,0-.8,9.3c2.2,2.6,5.7,2.6,8.7.1s3.6-6,1.4-8.6a6.54,6.54,0,0,0-9.3-.8"/></g><path id="Fill-8-3" data-name="Fill-8" class="cls-3" d="M266.56,279.23a3,3,0,0,0-1.2,2.2.75.75,0,0,0,1.5-.1s0-.5.7-1a1.9,1.9,0,0,1,1.1-.5c.4,0,.8-.2.8-.6s-.2-.8-.6-.8a3,3,0,0,0-2.3.8"/><path id="Fill-10-3" data-name="Fill-10" class="cls-3" d="M264.76,279.13a3.12,3.12,0,0,0-1.1,2.5.55.55,0,0,0,1.1-.1,2.16,2.16,0,0,1,.8-1.6.61.61,0,0,0,.1-.8.63.63,0,0,0-.9,0h0"/><path id="Fill-14-3" data-name="Fill-14" class="cls-3" d="M282,270.93a5,5,0,0,0-1.2-3.3,5.76,5.76,0,0,0-8.2-.7,5.55,5.55,0,0,0-1.7,2.3,5.53,5.53,0,0,1,2-3.9,5.76,5.76,0,0,1,8.2.7,4.38,4.38,0,0,1,.9,4.9"/><g id="Group-18-3" data-name="Group-18"><path id="Fill-16-3" data-name="Fill-16" class="cls-3" d="M279.47,273c-1.8,1.5-4.7,2.5-6.7.1a5.11,5.11,0,0,1,7.8-6.6c2.1,2.4.7,4.9-1.1,6.5m-7-8.3a6.63,6.63,0,0,0-.8,9.3c2.2,2.6,5.7,2.6,8.7.1s3.6-6,1.4-8.6a6.63,6.63,0,0,0-9.3-.8"/></g><path id="Fill-19-3" data-name="Fill-19" class="cls-3" d="M277.16,270.33a3,3,0,0,0-1.2,2.2.75.75,0,0,0,1.5-.1s0-.5.7-1a1.9,1.9,0,0,1,1.1-.5c.4,0,.8-.2.8-.6s-.2-.8-.6-.8c0-.1-1.1-.2-2.3.8"/><path id="Fill-21-3" data-name="Fill-21" class="cls-3" d="M275.26,270.13a3.12,3.12,0,0,0-1.1,2.5.55.55,0,0,0,1.1-.1,2.16,2.16,0,0,1,.8-1.6.61.61,0,0,0,.1-.8q-.3-.3-.9,0c.1-.1.1,0,0,0"/><path id="Fill-23-3" data-name="Fill-23" class="cls-3" d="M266.76,279.53h0a.9.9,0,0,0-.1,1.1c1.4,1.6,3.1,1.9,4.8,2.2,2.4.4,5,.9,7.4,5.3a.74.74,0,0,0,1.3-.7c-2.8-5.1-5.9-5.6-8.5-6-1.6-.3-2.9-.5-3.9-1.7a.62.62,0,0,0-1-.2"/><path id="Fill-25-3" data-name="Fill-25" class="cls-3" d="M277.16,270.33a1,1,0,0,0-.2.9c0,.1,7.2,14.3.3,18.4a.72.72,0,0,0,.8,1.2c8-4.9.5-19.8.2-20.4a.69.69,0,0,0-1-.3c0,.1-.1.1-.1.2"/><path id="Fill-29-3" data-name="Fill-29" class="cls-3" d="M289.36,283.53l-8.9,4.5s-.3-7.5,8.9-4.5"/><path id="Fill-31-3" data-name="Fill-31" class="cls-3" d="M281.26,287.63a4.4,4.4,0,0,1,1.6-3.3c1.2-.9,3.1-1,5.6-.3-.9,2.4-2.1,3.9-3.6,4.3a4.27,4.27,0,0,1-3.6-.7m.4-4.3a6.49,6.49,0,0,0-1.9,4.7.55.55,0,0,0,.3.5,6.13,6.13,0,0,0,5.2,1.2q3.15-.9,4.8-6a.72.72,0,0,0-.5-.9c-3.4-1.1-5.9-1-7.7.3l-.2.2"/></g><path id="carote-3" data-name="carote" class="cls-3" d="M137.56,191.53a3,3,0,0,1-2.3-.7,6.85,6.85,0,0,1-2-2.9l-.3-1.2a.65.65,0,1,1,1.3-.1,1.88,1.88,0,0,0,.2.8,6.43,6.43,0,0,0,1.7,2.4c.6.5,1.1.6,1.4.4a.79.79,0,0,0,.5-.6,5.42,5.42,0,0,0,.2-1.5,4.05,4.05,0,0,1-.9-.5,9.78,9.78,0,0,1-3.2-3.2,5,5,0,0,1-1.3.5,5.76,5.76,0,0,1-4-.7c-.6-.4-2-1.3-3.7-2.6s-3.8-2.9-5.8-4.5a66.83,66.83,0,0,1-5.2-4.6,12.41,12.41,0,0,1-1.6-1.9,3.55,3.55,0,0,1-.4-.9,1.21,1.21,0,0,1,.1-1,1.56,1.56,0,0,1,.8-.6,2.77,2.77,0,0,1,.9-.1,12,12,0,0,1,2.4.4,59,59,0,0,1,6.6,2.3c2.4.9,4.8,2,6.8,2.9s3.5,1.6,4.1,2a5.49,5.49,0,0,1,2.5,3.3,5.14,5.14,0,0,1,2.7-1.2,9.75,9.75,0,0,1,3.5.3,2.7,2.7,0,0,1,1.9,2.1,2.28,2.28,0,0,1-.7,1.9,7.27,7.27,0,0,1-.9.8,10.18,10.18,0,0,1,1.8,1.8,7,7,0,0,1,.9,1.7,2.46,2.46,0,0,1-.2,1.7,2.43,2.43,0,0,1-1.4,1,11.48,11.48,0,0,1-1.9.1,8.6,8.6,0,0,1-2.5-.7,3.19,3.19,0,0,1-.3,1.4,1.9,1.9,0,0,1-1.7,1.7Zm6.1-3.5a.92.92,0,0,0,.6-.4.82.82,0,0,0,0-.7,4.21,4.21,0,0,0-.7-1.3,12.79,12.79,0,0,0-3.4-2.9,7.58,7.58,0,0,0-3.8-.9c0,.1-.1.2-.1.4l1.9,1.1a.65.65,0,0,1,.2.9,1.38,1.38,0,0,1-.4.3h-.5l-1.9-1.1-.3.3a9.18,9.18,0,0,0,2.7,2.9,12.31,12.31,0,0,0,4.2,1.6,5.42,5.42,0,0,0,1.5-.2Zm-2-5.8a2.42,2.42,0,0,0,1.1-.8c.3-.3.4-.6.3-.8s-.4-.7-1.1-1a6.48,6.48,0,0,0-2.9-.3,4.57,4.57,0,0,0-2.4,1.2,8.79,8.79,0,0,1,4,1.2,3,3,0,0,1,1,.5Zm-9,1.6a3.2,3.2,0,0,0,2.3-1.6,3.87,3.87,0,0,0-1.7-5.2c-.2-.1-.7-.4-1.3-.7l-1.6,2.6c-.1.1-.2.3-.4.3h-.5a.65.65,0,0,1-.2-.9l1.5-2.6c-.5-.2-.9-.4-1.5-.7-1.5-.6-3.2-1.4-4.9-2.1l-1.2,2c-.1.1-.2.3-.4.3a1.09,1.09,0,0,1-.5-.1.65.65,0,0,1-.2-.9l1.1-1.8c-.2-.1-.4-.1-.6-.2a54.65,54.65,0,0,0-6.4-2.2,14.31,14.31,0,0,0-2.1-.4h-.5c0,.1.1.2.2.4a8,8,0,0,0,1.4,1.7,64.37,64.37,0,0,0,5.1,4.5c1.3,1,2.5,2,3.7,2.9l1.5-2.6a.65.65,0,0,1,1.1.7l-1.6,2.7c.3.2.7.5,1,.7a43.49,43.49,0,0,0,3.6,2.5,3.63,3.63,0,0,0,3.1.7Z"/><path id="champi-3" data-name="champi" class="cls-3" d="M10.16,189.53a9.59,9.59,0,0,1-6.3-2.3,8.48,8.48,0,0,1-2.8-6.6h0a2.59,2.59,0,0,1,1.4-2.4,3,3,0,0,1,2.6,0h0a10.37,10.37,0,0,0,5.1,1.1h1.5a24.33,24.33,0,0,1,1.1-7h0a2,2,0,0,0,.1-.8,2.7,2.7,0,0,0-5.4,0,2.2,2.2,0,0,0,.1.8,23.52,23.52,0,0,1,1,5.9l.1,1.1h-.4l-.6-.1v-.9a22.76,22.76,0,0,0-1-5.7,3.75,3.75,0,0,1-.1-1.1,3.6,3.6,0,0,1,7.2,0,4.48,4.48,0,0,1-.1,1.1h0a24,24,0,0,0-1,6.6,6.18,6.18,0,0,0,2.7-.9.76.76,0,0,1,.5-.2,2.77,2.77,0,0,1,.1-.9,2.22,2.22,0,0,1,1.7-1.4,1.91,1.91,0,0,0,1.5-.4.88.88,0,0,0-.1-.7c-1.3-1.3-2.9-2.5-4.1-3.7a3.19,3.19,0,0,1,4.9-4.1,5.58,5.58,0,0,1,.5.8c.6,1.2,1.5,2.8,2.3,4.2a.78.78,0,0,0,.7.3.74.74,0,0,0,.6-.5,3.54,3.54,0,0,1,.3-1.1,2.07,2.07,0,0,1,1.7-1.4,2.66,2.66,0,0,1,2.2.9,6.91,6.91,0,0,1,1.6,4.9,8,8,0,0,1-2.8,5.5,7.91,7.91,0,0,1-5.4,1.7,5.13,5.13,0,0,1-2.4-.7,11.15,11.15,0,0,1-2.7-2,.52.52,0,0,1-.2-.4c-.1,0-.2.1-.3.1h0a11.27,11.27,0,0,1-5.6,1.2,11.52,11.52,0,0,1-5.6-1.2h0a1.72,1.72,0,0,0-1.7,0,1.77,1.77,0,0,0-.9,1.6h0a7.57,7.57,0,0,0,2.5,5.9,9.42,9.42,0,0,0,5.6,2.1,8.19,8.19,0,0,0,8-6.2,4.05,4.05,0,0,1,.3-1.2h0l.4.2.3.1h0a8.66,8.66,0,0,1-.2,1,9.17,9.17,0,0,1-8.9,6.8Zm-3.7-3a1.4,1.4,0,1,1,0-2.8,1.45,1.45,0,0,1,1.4,1.5A1.42,1.42,0,0,1,6.46,186.53Zm0-.9a.4.4,0,1,0-.4-.4A.43.43,0,0,0,6.46,185.63Zm2.7-1.7a1.43,1.43,0,0,1-1.4-1.4,1.4,1.4,0,1,1,2.8,0A1.43,1.43,0,0,1,9.16,183.93Zm-4.5-.4a1.43,1.43,0,0,1-1.4-1.4,1.37,1.37,0,0,1,1.4-1.4,1.37,1.37,0,0,1,1.4,1.4A1.43,1.43,0,0,1,4.66,183.53Zm4.5-.5a.4.4,0,1,0-.4-.4A.43.43,0,0,0,9.16,183Zm-4.5-.5a.4.4,0,1,0,0-.8.4.4,0,1,0,0,.8Zm17.4-1.3a5.91,5.91,0,0,0,4.1-1.6,6.78,6.78,0,0,0,2.4-4.8,6,6,0,0,0-1.4-4.2,1.82,1.82,0,0,0-1.4-.6,1.59,1.59,0,0,0-1,.8l-.2,1.1a1.63,1.63,0,0,1-1.3,1.1,1.73,1.73,0,0,1-1.6-.7l-2.4-4.4-.3-.6a2.24,2.24,0,0,0-3.2-.3,2.12,2.12,0,0,0-.2,3.1c1.1,1.4,2.9,2.5,4,3.7a1.65,1.65,0,0,1,.2,1.8,2.21,2.21,0,0,1-2,.9,1.33,1.33,0,0,0-1,.8,1.53,1.53,0,0,0,.2,1.3,7.44,7.44,0,0,0,4.5,2.4.73.73,0,0,0,.6.2Z"/><g id="fraise-3" data-name="fraise"><path id="path-1-5" data-name="path-1" class="cls-2" d="M116.46,211.83c-5.5-1.7-14.1,6.3-15.7,11.7s3.1,10.7,8.4,12.3,12.1,0,13.8-5.5S122,213.53,116.46,211.83Zm-6.9,22.6c-4.7-1.4-8.8-5.8-7.4-10.5s9.3-12.1,13.9-10.8,7,11.9,5.5,16.6S114.16,235.83,109.56,234.43Z"/><path id="path-2-5" data-name="path-2" class="cls-2" d="M102.36,231.63a1.7,1.7,0,0,0-.7.1.57.57,0,0,0-.2.7c.3,2.3,2.3,3.6,3.6,4.2-.6.5-1.7,1.2-2.6,1.8a.75.75,0,0,0,0,1.2,1.49,1.49,0,0,0,.7.3c1.6.5,4-.4,5.1-.9.7,1,2.2,3.1,3.7,3.6a2.2,2.2,0,0,0,.8.1.6.6,0,0,0,.6-.3.85.85,0,0,0,0-.7c-.4-.9-.8-1.9-1.1-2.7a5,5,0,0,0,5.3-1.7.82.82,0,0,0,.1-.7c0-.2-.2-.4-.5-.5l-3.5-1.1h-.1l-3.9-.3a.49.49,0,0,1-.3-.1l-3.3-1.8H106l-3.6-1.2Zm11.1,4.8,2.2.7a3.69,3.69,0,0,1-3.2.3,4.54,4.54,0,0,1-.8-.3.64.64,0,0,0-.6,0,1,1,0,0,0-.4.5,5.9,5.9,0,0,0,.7,2.8,9.55,9.55,0,0,1-2-2.6.75.75,0,0,0-.5-.7h0a.83.83,0,0,0-.8.3,10.89,10.89,0,0,1-3.2,1,9.63,9.63,0,0,0,2.2-1.9c.1-.2,0-.4,0-.6a.7.7,0,0,0-.5-.4h-.1a5.73,5.73,0,0,1-3.1-2.1l2,.7,3.3,1.8h.1a.44.44,0,0,1,.3.1h.2Z"/><path id="path-3-5" data-name="path-3" class="cls-2" d="M105.56,225.73a.79.79,0,1,0-1,.5A.75.75,0,0,0,105.56,225.73Z"/><path id="path-4-5" data-name="path-4" class="cls-2" d="M110.16,227.13a.79.79,0,1,0-1,.5A.67.67,0,0,0,110.16,227.13Z"/><path id="path-5-5" data-name="path-5" class="cls-2" d="M114.86,228.53a.79.79,0,1,0-1,.5A.69.69,0,0,0,114.86,228.53Z"/><path id="path-6-5" data-name="path-6" class="cls-2" d="M119.46,229.93a.79.79,0,1,0-1,.5A.67.67,0,0,0,119.46,229.93Z"/><path id="path-7-5" data-name="path-7" class="cls-2" d="M108.76,222.73a.79.79,0,1,0-1,.5C108.16,223.43,108.56,223.13,108.76,222.73Z"/><path id="path-8-5" data-name="path-8" class="cls-2" d="M113.36,224.23a.79.79,0,1,0-1,.5A.83.83,0,0,0,113.36,224.23Z"/><path id="path-9-5" data-name="path-9" class="cls-2" d="M118,225.63a.79.79,0,1,0-1,.5A.83.83,0,0,0,118,225.63Z"/><path id="path-10-3" data-name="path-10" class="cls-2" d="M106.56,229.73a.79.79,0,1,0-1,.5A.72.72,0,0,0,106.56,229.73Z"/><path id="path-11-3" data-name="path-11" class="cls-2" d="M111.26,231.23a.79.79,0,1,0-1,.5A.83.83,0,0,0,111.26,231.23Z"/><path id="path-12-3" data-name="path-12" class="cls-2" d="M115.86,232.63a.79.79,0,1,0-1,.5A.78.78,0,0,0,115.86,232.63Z"/><path id="path-13-3" data-name="path-13" class="cls-2" d="M112.16,218.73a.79.79,0,1,0-1,.5A.72.72,0,0,0,112.16,218.73Z"/><path id="path-14-3" data-name="path-14" class="cls-2" d="M116.86,220.13a.79.79,0,1,0-1,.5A.69.69,0,0,0,116.86,220.13Z"/><path id="path-15-3" data-name="path-15" class="cls-2" d="M115.86,215.93a.79.79,0,1,0-1,.5A.72.72,0,0,0,115.86,215.93Z"/></g><g id="raisin-3" data-name="raisin"><path id="path-1-6" data-name="path-1" class="cls-2" d="M98.56,188.63a3.65,3.65,0,1,0,1.9,4.8A3.59,3.59,0,0,0,98.56,188.63Zm-2.2,5.4a2.22,2.22,0,1,1,2.9-1.2A2.34,2.34,0,0,1,96.36,194Z"/><path id="path-2-6" data-name="path-2" class="cls-2" d="M104.06,190.93a3.65,3.65,0,1,0,1.9,4.8A3.59,3.59,0,0,0,104.06,190.93Zm-2.2,5.4a2.22,2.22,0,1,1,2.9-1.2A2.34,2.34,0,0,1,101.86,196.33Z"/><path id="path-3-6" data-name="path-3" class="cls-2" d="M109.66,193.23a3.65,3.65,0,1,0,1.9,4.8A3.71,3.71,0,0,0,109.66,193.23Zm-2.3,5.4a2.22,2.22,0,1,1,2.9-1.2A2.24,2.24,0,0,1,107.36,198.63Z"/><path id="path-4-6" data-name="path-4" class="cls-2" d="M103.36,184.93a3.65,3.65,0,1,0,1.9,4.8A3.71,3.71,0,0,0,103.36,184.93Zm-2.3,5.4a2.22,2.22,0,1,1,2.9-1.2A2.21,2.21,0,0,1,101.06,190.33Z"/><path id="path-5-6" data-name="path-5" class="cls-2" d="M108.86,187.33a3.65,3.65,0,1,0,1.9,4.8A3.49,3.49,0,0,0,108.86,187.33Zm-2.3,5.3a2.22,2.22,0,1,1,2.9-1.2A2.13,2.13,0,0,1,106.56,192.63Z"/><path id="path-6-6" data-name="path-6" class="cls-2" d="M99.06,195.13a3.65,3.65,0,1,0,1.9,4.8A3.71,3.71,0,0,0,99.06,195.13Zm-2.2,5.4a2.22,2.22,0,1,1,2.9-1.2A2.28,2.28,0,0,1,96.86,200.53Z"/><path id="path-7-6" data-name="path-7" class="cls-2" d="M104.56,197.53a3.65,3.65,0,1,0,1.9,4.8A3.49,3.49,0,0,0,104.56,197.53Zm-2.2,5.3a2.22,2.22,0,1,1,2.9-1.2A2.19,2.19,0,0,1,102.36,202.83Z"/><path id="path-8-6" data-name="path-8" class="cls-2" d="M108,181.23a3.65,3.65,0,1,0,1.9,4.8A3.49,3.49,0,0,0,108,181.23Zm-2.2,5.3a2.22,2.22,0,1,1,2.9-1.2A2.19,2.19,0,0,1,105.76,186.53Z"/><path id="path-9-6" data-name="path-9" class="cls-2" d="M100.76,199a1,1,0,0,0-.9.2c-.2.3-5.4,7.8-1,11.3a.71.71,0,0,0,.9-1.1c-3.3-2.6,1.3-9.2,1.3-9.3a.85.85,0,0,0-.3-1.1Z"/></g></g><g id="bd"><path id="tomate-4" data-name="tomate" class="cls-2" d="M287.66,156.53a6.39,6.39,0,0,1,1.7,5,7.73,7.73,0,0,1,4.3,1.9,5.1,5.1,0,0,1,1.7,2.4,1.34,1.34,0,0,1-.2.9,11.17,11.17,0,0,1,0,7,10.56,10.56,0,1,1-15.5-12.6c0-.6.5-.9,1-1.1a9,9,0,0,1,1.9-.4,7.47,7.47,0,0,1,3.9.6,2.13,2.13,0,0,0-.7-1.2c-.1-.1-.2-.4,0-.5l1.5-1.9c0-.4.2-.3.4-.1Zm-1.4,2.3a3.58,3.58,0,0,1,.9,2.1.37.37,0,0,1-.6.3,7,7,0,0,0-4.2-.9,3.81,3.81,0,0,0-1.6.3c-1.3.4.5,1.4,1,1.7a6.47,6.47,0,0,1,.9-.8.35.35,0,0,1,.5.5,18.48,18.48,0,0,0-1.4,1.4c-.8,1.2-.5,1.7.7,1.7a18,18,0,0,0,2.2-.2v-.6a.4.4,0,1,1,.8,0v1.9c0,.5.2,1.1.5,1.2s.8-.2,1.2-.6.8-1,1.2-1.5a.36.36,0,1,1,.6.4c-.1.1-.2.3-.4.5a12.07,12.07,0,0,0,1.6,1.6,9.22,9.22,0,0,0,.8.5c.9.4.7-2.7.6-3.2,0-.2.1-.4.3-.4s.4.1.4.3c0,.4.1.8.1,1.2a6.88,6.88,0,0,0,1.3.2c.8,0,.8-.3.5-.9a6.91,6.91,0,0,0-1.2-1.4,7.25,7.25,0,0,0-4.2-1.8.37.37,0,0,1-.4-.4,5.72,5.72,0,0,0-1.2-4.3Zm5.5,10.1c-.7.4-1.5-.2-2-.6a12.07,12.07,0,0,1-1.6-1.6l-.4.4c-.5.5-1.2,1.2-2,.9s-.9-1.3-1-2v-.6a16.35,16.35,0,0,1-2.2.2,4.87,4.87,0,0,1-1.2-.1,1.56,1.56,0,0,1-.8-.6c-.3-.6.3-1.6.7-2.1a5.83,5.83,0,0,1-1.5-1.1,9.32,9.32,0,0,0-3.9,5,10,10,0,0,0,6,12.6,9.8,9.8,0,0,0,12.6-6,9.38,9.38,0,0,0,0-6.4,5.31,5.31,0,0,1-1.8-.1c-.2.9-.3,1.7-.9,2.1Zm-12.4-5.1a.45.45,0,0,1,0,.5,6.8,6.8,0,0,0-2.1,4,8.54,8.54,0,0,0,.3,4.3.38.38,0,1,1-.7.3,9.06,9.06,0,0,1-.4-4.7,7.66,7.66,0,0,1,2.4-4.5c.1-.1.3-.1.5.1Zm-1,11,.6.9c.1.2.1.4-.1.5s-.4.1-.5-.1-.4-.7-.6-1a.44.44,0,0,1,.1-.5.37.37,0,0,1,.5.2Z"/><path id="aubergine-4" data-name="aubergine" class="cls-2" d="M225.76,201.73a6.58,6.58,0,0,1,.4,1.5,4.15,4.15,0,0,0,.3,1.6,2.3,2.3,0,0,1,2.5,1.8,5.56,5.56,0,0,0,1.8,2.8.45.45,0,0,1-.2.8h-1a8.81,8.81,0,0,0,3.2,7c1.7,1.6,3.6,3.1,4.1,6.2a3.7,3.7,0,0,1-1.5,3.8,9.16,9.16,0,0,1-4.3,1.5h0a8.91,8.91,0,0,1-4.5-.7,6.41,6.41,0,0,1-4.7.2,9.14,9.14,0,0,1-4-2.8,27,27,0,0,1-5-8.2,2.18,2.18,0,0,1-.5.4c-.3.2-.8,0-.7-.4a5.33,5.33,0,0,0-.8-3,3.26,3.26,0,0,1-.4-1.4,2.08,2.08,0,0,1,.7-1.5,5.38,5.38,0,0,0-.9-1.2,5.67,5.67,0,0,1-.8-1.3,1.24,1.24,0,0,1,.4-1.5,1.21,1.21,0,0,1,1.6,0,3.46,3.46,0,0,1,1.1,1,10.59,10.59,0,0,0,1,1.2,2.41,2.41,0,0,1,1.6-.3,5.17,5.17,0,0,1,1.3.6,5,5,0,0,0,2.7,1.4c.4,0,.5.5.2.8a5.58,5.58,0,0,1-.8.5,9.22,9.22,0,0,0,3.2,3.3,31.45,31.45,0,0,1,.3-4.4,1.7,1.7,0,0,1-.7.1c-.4,0-.7-.4-.4-.7a5.08,5.08,0,0,0,.8-3.2,2.82,2.82,0,0,1,.4-1.5,3,3,0,0,1,1.4-1,9.85,9.85,0,0,0-.2-1.7,4.3,4.3,0,0,1,0-1.6,1.27,1.27,0,0,1,1.1-1.1,2.68,2.68,0,0,1,1.3,1Zm-1.6.6v1.3a7.84,7.84,0,0,1,.2,1.4,1.14,1.14,0,0,1-.6,1.2,1.61,1.61,0,0,0-1,.7c-.6,1.1-.1,2.9-1,3.7a3.45,3.45,0,0,0,2.1-1.2c.2-.2,0-.6,0-.8s.1-.5.4-.5.5.1.5.4a5.87,5.87,0,0,0,.6,2c.1.2.2.4.4.4s.2-.2.2-.5a7.38,7.38,0,0,0,0-2.1c0-.2.1-.5.4-.5s.5.1.5.4a1.55,1.55,0,0,0,.2.8,3.87,3.87,0,0,0,2.3.5c-1.1-.7-1.3-2.2-2-3.2a1.44,1.44,0,0,0-1.1-.3,1,1,0,0,1-.9-.9c-.1-.4-.1-.9-.2-1.4a6.81,6.81,0,0,0-.3-1.2C224.76,201.83,224.26,201.83,224.16,202.33Zm-13.9,6.4a6.42,6.42,0,0,0,.6,1c.3.4.6.7.9,1.1a1.23,1.23,0,0,1,.1,1.3,1.35,1.35,0,0,0-.5,1,1.61,1.61,0,0,0,.3.9,4.81,4.81,0,0,1,.8,2.2c.7-.9,1.1-1.6.5-2.3a.63.63,0,0,1,0-.6.64.64,0,0,1,.6,0,10,10,0,0,0,1.5,1.4c.2.1.4.2.5.1v-.5a10.42,10.42,0,0,0-1-1.8.63.63,0,0,1,0-.6.5.5,0,0,1,.6,0c.5.8,2,.3,2.7-.1-.9,0-2.1-1.3-3.2-1.7a2.8,2.8,0,0,0-1.1.2,1.05,1.05,0,0,1-1.2-.3,10.63,10.63,0,0,1-.9-1.1,2.94,2.94,0,0,0-.8-.8c-.1-.1-.5.2-.4.6Zm15.8,3.2c-.9.1-1.4-1-1.7-1.7a4.19,4.19,0,0,1-1.4.9c-.5,3.3-.7,7.7.3,11.1a8.3,8.3,0,0,0,2.5,4.2l.9.6h0a6.61,6.61,0,0,0,4.1.7,9.4,9.4,0,0,0,3.9-1.3,2.83,2.83,0,0,0,1.1-3c-.4-2.8-2.1-4-3.8-5.6a10,10,0,0,1-3.5-7.7,4.19,4.19,0,0,1-1.5-.4c.1,1.1-.1,2.1-.9,2.2Zm-9.8,1.5a6.58,6.58,0,0,1,.4,1.5.83.83,0,0,1-.3.8.78.78,0,0,1-.8.1,3.29,3.29,0,0,1-1.3-.7,3.69,3.69,0,0,1-.7,1.4,27.91,27.91,0,0,0,5,8.4,8.7,8.7,0,0,0,3.7,2.5,6.51,6.51,0,0,0,3.4.1c-.1,0-.1-.1-.2-.2a9,9,0,0,1-2.8-4.7,26.08,26.08,0,0,1-.8-5.6,9.21,9.21,0,0,1-4-3.9,15.69,15.69,0,0,0-1.6.3Zm8.2-.7c.2,0,.4.3.4.5-.5,3.3-.6,7,.9,10a.45.45,0,1,1-.8.4c-1.7-3.3-1.6-7.1-1-10.5C224,212.73,224.16,212.63,224.46,212.73Zm-8.5,4.5a15.3,15.3,0,0,0,5.5,7.7.38.38,0,0,1,.1.6c-.2.2-.4.3-.6.1-2.9-1.9-4.7-5.1-5.8-8.1a.48.48,0,0,1,.2-.6c.3,0,.5,0,.6.3Zm10.8,7.3a1.61,1.61,0,0,0,.7.4.45.45,0,1,1-.4.8,2.36,2.36,0,0,1-.9-.6c-.2-.1-.2-.4,0-.6s.5-.2.6,0Z"/><path id="navet-4" data-name="navet" class="cls-2" d="M207.46,260.33a4,4,0,0,1,3.8,3,4,4,0,0,1,2.3-.8,3.75,3.75,0,0,1,2.8,6.3,3.3,3.3,0,0,1-.2,2.9,2.34,2.34,0,0,1,.2,1.2c7.8.4,9.6,8.6,5.5,12.6a2.85,2.85,0,0,0,.7.8,3.77,3.77,0,0,0,1.9,0,.6.6,0,0,1,.4.1c.2.1.2.4,0,.6a4.2,4.2,0,0,1-3.5,1.8,3.42,3.42,0,0,1-2.7-1.5c-4,1.1-6.7-.7-8.5-3.6a6.58,6.58,0,0,1,.9-8.1c1.1-.6,1.5-1.2,1.2-2.4a2,2,0,0,0-1.3-1.4c-.3-.2-.3-.7-.4-1.1a2.91,2.91,0,0,0-2.7-2.1c-.2,0-.3-.1-.4-.3a3.92,3.92,0,0,0-4.7-2.7,3.8,3.8,0,0,0-2.7,4.6,3.72,3.72,0,0,0,4.7,2.6c.2,0,.4,0,.5.2a3.13,3.13,0,0,0,2.8,1.4.52.52,0,0,1,.4.2,2,2,0,0,0,.9.9.45.45,0,0,1-.4.8,2.54,2.54,0,0,1-1.2-1.1,3.94,3.94,0,0,1-3.3-1.6,4.65,4.65,0,0,1-5.5-3.2c-.6-3.4,1.4-5.6,4-5.9a4.83,4.83,0,0,1,4.5-4.2Zm0,.9a3.14,3.14,0,0,0-3,3.3,4.73,4.73,0,0,1,3.9,3.3,3.84,3.84,0,0,1,3.3,2.8c0,.2.1.5.1.8a2.8,2.8,0,0,1,1.5,1.7,7.08,7.08,0,0,1,.1,1.4,1.77,1.77,0,0,0,1.7-.5,1.66,1.66,0,0,0,.2-1.9.45.45,0,0,1,0-.5,2.32,2.32,0,0,0,.2-2.4.44.44,0,0,1,.1-.5,3,3,0,0,0-4.2-4.2,3.34,3.34,0,0,0-.9,2.3c0,.2-.2.5-.4.5s-.5-.2-.5-.4a4.3,4.3,0,0,1,.7-2.5,2.8,2.8,0,0,0-2.8-3.2Zm6.6,3.8a.34.34,0,0,1,.3.5,15.11,15.11,0,0,0-.4,4.8c0,.2-.1.5-.4.5s-.5-.1-.5-.4a17.32,17.32,0,0,1,.4-5.1A.42.42,0,0,1,214.06,265Zm-11.3,3.5h0a20.41,20.41,0,0,1,8.8,5c.2.1.2.4,0,.6s-.4.2-.6,0a19.46,19.46,0,0,0-8.3-4.8.38.38,0,0,1-.3-.5c0-.2.2-.3.4-.3Zm13.4,5.3a2.09,2.09,0,0,1-.4.6,2.75,2.75,0,0,1-1.5.8,4.82,4.82,0,0,1-1.2,0,2.27,2.27,0,0,1-1.4,1.1c-2.1,2.1-1.8,5.1-.4,7.3a2.74,2.74,0,0,1,1.3-.2,1.1,1.1,0,0,0,1-.6,3.24,3.24,0,0,1,2.9-1.7,1.1,1.1,0,0,0,1-.6,3.24,3.24,0,0,1,2.9-1.7,1.1,1.1,0,0,0,1-.6,2.84,2.84,0,0,1,.9-1c-.7-2.2-3.8-3.6-6.1-3.4Zm2.1,1.4c.1.2.1.5-.1.6a14.63,14.63,0,0,1-1.3.9c-.2.1-.5.1-.6-.1s-.1-.5.1-.6a12.49,12.49,0,0,0,1.2-.9c.4-.2.6-.1.7.1Zm2.7.5a.38.38,0,0,1,.1.6,6.75,6.75,0,0,1-1.7,1.7c-.2.1-.5.1-.6-.1s-.1-.5.1-.6a7,7,0,0,0,1.5-1.4c.2-.3.4-.3.6-.2Zm-6.1,1.7a.48.48,0,0,1-.2.6,5.94,5.94,0,0,1-.8.4.45.45,0,0,1-.4-.8,2.51,2.51,0,0,0,.7-.4A.57.57,0,0,1,214.86,277.43Zm7.9.8a.92.92,0,0,0-.4.6,2.19,2.19,0,0,1-1.8,1.1,2.25,2.25,0,0,0-2.1,1.2,2.23,2.23,0,0,1-1.8,1,2.17,2.17,0,0,0-2.1,1.3,2.23,2.23,0,0,1-1.8,1,1.7,1.7,0,0,0-.7.1,5.83,5.83,0,0,0,6.8,1.9c.2-.1.4,0,.8.5a2.7,2.7,0,0,0,3.8.4,2,2,0,0,1-1.1-.2,3.43,3.43,0,0,1-1.2-1.2c-.2-.4-.2-.7,0-.8a6.2,6.2,0,0,0,1.6-6.9Zm-5.9,1a.61.61,0,0,1-.1.6,10.93,10.93,0,0,1-1.5.8.45.45,0,0,1-.4-.8,10.93,10.93,0,0,0,1.5-.8.37.37,0,0,1,.5.2Zm-3.6,1.8a.48.48,0,0,1-.2.6c-.2.1-.4.1-.6.2a.47.47,0,0,1-.3-.9,1.42,1.42,0,0,0,.6-.2A.55.55,0,0,1,213.26,281Z"/><g id="cerise-4" data-name="cerise"><path id="Fill-3-4" data-name="Fill-3" class="cls-3" d="M169.66,162.43a5,5,0,0,0,1.2,3.3,5.76,5.76,0,0,0,8.2.7,5.55,5.55,0,0,0,1.7-2.3,5.53,5.53,0,0,1-2,3.9,5.76,5.76,0,0,1-8.2-.7,4.19,4.19,0,0,1-.9-4.9"/><g id="Group-7-4" data-name="Group-7"><path id="Fill-5-4" data-name="Fill-5" class="cls-3" d="M172.16,160.33c1.8-1.5,4.6-2.5,6.6-.1a5.11,5.11,0,1,1-7.8,6.6c-2-2.3-.6-4.9,1.2-6.5m7,8.3a6.63,6.63,0,0,0,.8-9.3c-2.2-2.6-5.7-2.6-8.7-.1s-3.6,6-1.4,8.6a6.64,6.64,0,0,0,9.3.8"/></g><path id="Fill-8-4" data-name="Fill-8" class="cls-3" d="M174.46,163.13a3,3,0,0,0,1.2-2.2.75.75,0,1,0-1.5.1s0,.5-.7,1a2.19,2.19,0,0,1-1.1.5c-.4,0-.8.2-.8.6s.2.8.6.8a2.94,2.94,0,0,0,2.3-.8"/><path id="Fill-10-4" data-name="Fill-10" class="cls-3" d="M176.26,163.23a3.12,3.12,0,0,0,1.1-2.5.55.55,0,0,0-1.1.1,2.16,2.16,0,0,1-.8,1.6.61.61,0,0,0-.1.8.75.75,0,0,0,.9,0h0"/><path id="Fill-14-4" data-name="Fill-14" class="cls-3" d="M159.06,171.43a5,5,0,0,0,1.2,3.3,5.76,5.76,0,0,0,8.2.7,5.55,5.55,0,0,0,1.7-2.3,5.53,5.53,0,0,1-2,3.9,5.76,5.76,0,0,1-8.2-.7,4.38,4.38,0,0,1-.9-4.9"/><g id="Group-18-4" data-name="Group-18"><path id="Fill-16-4" data-name="Fill-16" class="cls-3" d="M161.57,169.33c1.8-1.5,4.6-2.5,6.6-.1a5.11,5.11,0,1,1-7.8,6.6c-2-2.4-.6-5,1.2-6.5m7,8.3a6.63,6.63,0,0,0,.8-9.3c-2.2-2.6-5.7-2.6-8.7-.1s-3.6,6-1.4,8.6a6.63,6.63,0,0,0,9.3.8"/></g><path id="Fill-19-4" data-name="Fill-19" class="cls-3" d="M163.86,172a3,3,0,0,0,1.2-2.2.75.75,0,0,0-1.5.1s0,.5-.7,1a1.9,1.9,0,0,1-1.1.5c-.4,0-.8.2-.8.6s.2.8.6.8a3,3,0,0,0,2.3-.8"/><path id="Fill-21-4" data-name="Fill-21" class="cls-3" d="M165.76,172.23a3.12,3.12,0,0,0,1.1-2.5.55.55,0,1,0-1.1.1,2.16,2.16,0,0,1-.8,1.6.61.61,0,0,0-.1.8.93.93,0,0,0,.9,0c-.1.1-.1,0,0,0"/><path id="Fill-23-4" data-name="Fill-23" class="cls-3" d="M174.26,162.83h0a.9.9,0,0,0,.1-1.1c-1.4-1.6-3.1-1.9-4.8-2.2-2.4-.4-5-.9-7.4-5.3a.74.74,0,0,0-1.3.7c2.8,5.1,5.9,5.6,8.5,6,1.6.3,2.9.5,3.9,1.7a.62.62,0,0,0,1,.2"/><path id="Fill-25-4" data-name="Fill-25" class="cls-3" d="M163.86,172a1,1,0,0,0,.2-.9c0-.1-7.2-14.3-.3-18.4a.72.72,0,1,0-.8-1.2c-8,4.9-.5,19.8-.2,20.4a.69.69,0,0,0,1,.3c0-.1.1-.1.1-.2"/><path id="Fill-29-4" data-name="Fill-29" class="cls-3" d="M151.76,158.83l8.9-4.5c-.1,0,.3,7.5-8.9,4.5"/><path id="Fill-31-4" data-name="Fill-31" class="cls-3" d="M159.76,154.73a4.4,4.4,0,0,1-1.6,3.3c-1.2.9-3.1,1-5.6.3.9-2.4,2.1-3.9,3.6-4.3a4.18,4.18,0,0,1,3.6.7m-.4,4.3a6.49,6.49,0,0,0,1.9-4.7.55.55,0,0,0-.3-.5,6.13,6.13,0,0,0-5.2-1.2q-3.15.9-4.8,6a.72.72,0,0,0,.5.9c3.4,1.1,5.9,1,7.7-.3.1-.1.2-.1.2-.2"/></g><path id="carote-4" data-name="carote" class="cls-3" d="M158.76,241.43a3,3,0,0,1,2.3.7,6.85,6.85,0,0,1,2,2.9l.3,1.2a.65.65,0,0,1-1.3.1,1.88,1.88,0,0,0-.2-.8,6.43,6.43,0,0,0-1.7-2.4c-.6-.5-1.1-.6-1.4-.4a.79.79,0,0,0-.5.6,5.42,5.42,0,0,0-.2,1.5,4.05,4.05,0,0,1,.9.5,9.78,9.78,0,0,1,3.2,3.2,5,5,0,0,1,1.3-.5,5.76,5.76,0,0,1,4,.7c.6.4,2,1.3,3.7,2.6s3.8,2.9,5.8,4.5a66.83,66.83,0,0,1,5.2,4.6,12.41,12.41,0,0,1,1.6,1.9,3.55,3.55,0,0,1,.4.9,1.21,1.21,0,0,1-.1,1,1.56,1.56,0,0,1-.8.6,2.77,2.77,0,0,1-.9.1,12,12,0,0,1-2.4-.4,59,59,0,0,1-6.6-2.3c-2.4-.9-4.8-2-6.8-2.9s-3.5-1.6-4.1-2A5.49,5.49,0,0,1,160,254a5.14,5.14,0,0,1-2.7,1.2,9.75,9.75,0,0,1-3.5-.3,2.7,2.7,0,0,1-1.9-2.1,2.28,2.28,0,0,1,.7-1.9,7.27,7.27,0,0,1,.9-.8,10.18,10.18,0,0,1-1.8-1.8,7,7,0,0,1-.9-1.7,2.46,2.46,0,0,1,.2-1.7,2.43,2.43,0,0,1,1.4-1,11.48,11.48,0,0,1,1.9-.1,8.6,8.6,0,0,1,2.5.7,3.19,3.19,0,0,1,.3-1.4,2,2,0,0,1,1.7-1.7Zm-6.1,3.5a.92.92,0,0,0-.6.4.82.82,0,0,0,0,.7,4.21,4.21,0,0,0,.7,1.3,12.79,12.79,0,0,0,3.4,2.9,7.58,7.58,0,0,0,3.8.9c0-.1.1-.2.1-.4l-1.9-1.1a.65.65,0,0,1-.2-.9,1.38,1.38,0,0,1,.4-.3h.5l1.9,1.1.3-.3a9.18,9.18,0,0,0-2.7-2.9,12.31,12.31,0,0,0-4.2-1.6,6.05,6.05,0,0,0-1.5.2Zm2,5.8a2.42,2.42,0,0,0-1.1.8c-.3.3-.4.6-.3.8s.4.7,1.1,1a6.48,6.48,0,0,0,2.9.3,4.57,4.57,0,0,0,2.4-1.2,8.79,8.79,0,0,1-4-1.2,1.87,1.87,0,0,1-1-.5Zm9-1.6a3.2,3.2,0,0,0-2.3,1.6,3.87,3.87,0,0,0,1.7,5.2c.2.1.7.4,1.3.7L166,254c.1-.1.2-.3.4-.3h.5a.65.65,0,0,1,.2.9l-1.5,2.6c.5.2.9.4,1.5.7,1.5.6,3.2,1.4,4.9,2.1l1.2-2c.1-.1.2-.3.4-.3a1.09,1.09,0,0,1,.5.1.65.65,0,0,1,.2.9l-1.1,1.8c.2.1.4.1.6.2a54.65,54.65,0,0,0,6.4,2.2,14.31,14.31,0,0,0,2.1.4h.5c0-.1-.1-.2-.2-.4a8,8,0,0,0-1.4-1.7,64.37,64.37,0,0,0-5.1-4.5c-1.3-1-2.5-2-3.7-2.9l-1.5,2.6a.65.65,0,1,1-1.1-.7l1.6-2.7c-.3-.2-.7-.5-1-.7a43.49,43.49,0,0,0-3.6-2.5,4,4,0,0,0-3.1-.7Z"/><g id="fraise-4" data-name="fraise"><path id="path-1-7" data-name="path-1" class="cls-2" d="M179.86,221.13c5.5,1.7,14.1-6.3,15.7-11.7s-3.1-10.7-8.4-12.3-12.1,0-13.8,5.5S174.36,219.43,179.86,221.13Zm7-22.6c4.7,1.4,8.8,5.8,7.4,10.5s-9.3,12.1-13.9,10.8-7-11.9-5.5-16.6C176.16,198.43,182.16,197.13,186.86,198.53Z"/><path id="path-2-7" data-name="path-2" class="cls-2" d="M194,201.43a1.7,1.7,0,0,0,.7-.1.57.57,0,0,0,.2-.7c-.3-2.3-2.3-3.6-3.6-4.2.6-.5,1.7-1.2,2.6-1.8a.75.75,0,0,0,0-1.2,1.49,1.49,0,0,0-.7-.3c-1.6-.5-4,.4-5.1.9-.7-1-2.2-3.1-3.7-3.6a2.2,2.2,0,0,0-.8-.1.6.6,0,0,0-.6.3.85.85,0,0,0,0,.7c.4.9.8,1.9,1.1,2.7a5,5,0,0,0-5.3,1.7.82.82,0,0,0-.1.7.64.64,0,0,0,.5.5l3.5,1.1h.1l3.9.3a.49.49,0,0,1,.3.1l3.3,1.8h.1l3.6,1.2Zm-11-4.9-2.2-.7a3.69,3.69,0,0,1,3.2-.3,4.54,4.54,0,0,1,.8.3.64.64,0,0,0,.6,0,1,1,0,0,0,.4-.5,5.9,5.9,0,0,0-.7-2.8,9.55,9.55,0,0,1,2,2.6.75.75,0,0,0,.5.7h0a.83.83,0,0,0,.8-.3,10.89,10.89,0,0,1,3.2-1,9.63,9.63,0,0,0-2.2,1.9c-.1.2,0,.4,0,.6a.7.7,0,0,0,.5.4h.1a5.73,5.73,0,0,1,3.1,2.1l-2-.7-3.3-1.8h-.1a.44.44,0,0,1-.3-.1h-.2Z"/><path id="path-3-7" data-name="path-3" class="cls-2" d="M190.76,207.23a.79.79,0,1,0,1-.5A.83.83,0,0,0,190.76,207.23Z"/><path id="path-4-7" data-name="path-4" class="cls-2" d="M186.16,205.83a.79.79,0,1,0,1-.5A.75.75,0,0,0,186.16,205.83Z"/><path id="path-5-7" data-name="path-5" class="cls-2" d="M181.46,204.43a.79.79,0,1,0,1-.5A.75.75,0,0,0,181.46,204.43Z"/><path id="path-6-7" data-name="path-6" class="cls-2" d="M176.86,203a.79.79,0,1,0,1-.5A.69.69,0,0,0,176.86,203Z"/><path id="path-7-7" data-name="path-7" class="cls-2" d="M187.56,210.23a.79.79,0,1,0,1-.5C188.16,209.53,187.76,209.83,187.56,210.23Z"/><path id="path-8-7" data-name="path-8" class="cls-2" d="M183,208.83a.79.79,0,1,0,1-.5A.78.78,0,0,0,183,208.83Z"/><path id="path-9-7" data-name="path-9" class="cls-2" d="M178.36,207.33a.79.79,0,1,0,1-.5A.83.83,0,0,0,178.36,207.33Z"/><path id="path-10-4" data-name="path-10" class="cls-2" d="M189.76,203.23a.79.79,0,1,0,1-.5A.75.75,0,0,0,189.76,203.23Z"/><path id="path-11-4" data-name="path-11" class="cls-2" d="M185.06,201.73a.79.79,0,1,0,1-.5A.94.94,0,0,0,185.06,201.73Z"/><path id="path-12-4" data-name="path-12" class="cls-2" d="M180.46,200.33a.79.79,0,1,0,1-.5A.83.83,0,0,0,180.46,200.33Z"/><path id="path-13-4" data-name="path-13" class="cls-2" d="M184.16,214.23a.79.79,0,1,0,1-.5A.75.75,0,0,0,184.16,214.23Z"/><path id="path-14-4" data-name="path-14" class="cls-2" d="M179.56,212.83a.79.79,0,1,0,1-.5A.69.69,0,0,0,179.56,212.83Z"/><path id="path-15-4" data-name="path-15" class="cls-2" d="M180.46,217a.79.79,0,1,0,1-.5A.75.75,0,0,0,180.46,217Z"/></g><g id="raisin-4" data-name="raisin"><path id="path-1-8" data-name="path-1" class="cls-2" d="M257.16,261.63a3.65,3.65,0,1,0-1.9-4.8A3.63,3.63,0,0,0,257.16,261.63Zm2.2-5.4a2.22,2.22,0,1,1-2.9,1.2A2.34,2.34,0,0,1,259.36,256.23Z"/><path id="path-2-8" data-name="path-2" class="cls-2" d="M251.66,259.33a3.65,3.65,0,1,0-1.9-4.8A3.59,3.59,0,0,0,251.66,259.33Zm2.2-5.4a2.22,2.22,0,1,1-2.9,1.2A2.24,2.24,0,0,1,253.86,253.93Z"/><path id="path-3-8" data-name="path-3" class="cls-2" d="M246.06,256.93a3.65,3.65,0,1,0-1.9-4.8A3.64,3.64,0,0,0,246.06,256.93Zm2.3-5.3a2.22,2.22,0,1,1-2.9,1.2A2.16,2.16,0,0,1,248.36,251.63Z"/><path id="path-4-8" data-name="path-4" class="cls-2" d="M252.36,265.33a3.65,3.65,0,1,0-1.9-4.8A3.71,3.71,0,0,0,252.36,265.33Zm2.3-5.4a2.22,2.22,0,1,1-2.9,1.2A2.21,2.21,0,0,1,254.66,259.93Z"/><path id="path-5-8" data-name="path-5" class="cls-2" d="M246.86,262.93a3.65,3.65,0,1,0-1.9-4.8A3.52,3.52,0,0,0,246.86,262.93Zm2.3-5.3a2.22,2.22,0,1,1-2.9,1.2A2.13,2.13,0,0,1,249.16,257.63Z"/><path id="path-6-8" data-name="path-6" class="cls-2" d="M256.66,255a3.65,3.65,0,1,0-1.9-4.8A3.59,3.59,0,0,0,256.66,255Zm2.2-5.3a2.22,2.22,0,1,1-2.9,1.2A2.19,2.19,0,0,1,258.86,249.73Z"/><path id="path-7-8" data-name="path-7" class="cls-2" d="M251.06,252.73a3.65,3.65,0,1,0-1.9-4.8A3.64,3.64,0,0,0,251.06,252.73Zm2.3-5.3a2.22,2.22,0,1,1-2.9,1.2A2.19,2.19,0,0,1,253.36,247.43Z"/><path id="path-8-8" data-name="path-8" class="cls-2" d="M247.66,269a3.65,3.65,0,1,0-1.9-4.8A3.71,3.71,0,0,0,247.66,269Zm2.3-5.3a2.22,2.22,0,1,1-2.9,1.2A2.16,2.16,0,0,1,250,263.73Z"/><path id="path-9-8" data-name="path-9" class="cls-2" d="M255,251.13a1,1,0,0,0,.9-.2c.2-.3,5.4-7.8,1-11.3a.71.71,0,1,0-.9,1.1c3.3,2.6-1.3,9.2-1.3,9.3a.8.8,0,0,0,.3,1.1Z"/></g><path id="poivron-4" data-name="poivron" class="cls-2" d="M224.16,161.13a7,7,0,0,1,3.7,1.5,9.15,9.15,0,0,0,.1-1.7,1.06,1.06,0,0,1,1.2-1.2l1.1.1a1.42,1.42,0,0,1,.6.2h0a1.33,1.33,0,0,1,.6,1,7.41,7.41,0,0,1-.6,3.6,6.18,6.18,0,0,1,2.7,2.6,4.55,4.55,0,0,1,.6,3l.3.6a4.94,4.94,0,0,1-.4,3.5,13.71,13.71,0,0,1-3.7,4.3h0c-3.1,2.5-5,3.9-6.5,4.4a3.26,3.26,0,0,1-2.2-.1,5.8,5.8,0,0,1-1.5-1.3,3,3,0,0,1-3.9-2.4,4.94,4.94,0,0,1-1.8-.8,3,3,0,0,1-1.1-1.9c-.2-1.7.2-3.9,1.2-7.8h0a14.68,14.68,0,0,1,2.3-5.3,4.22,4.22,0,0,1,3-1.9,4.87,4.87,0,0,1,1.2.1,6.35,6.35,0,0,1,3.1-.5Zm5-.2a7.93,7.93,0,0,1-1.2,4.6,2,2,0,0,1,.9.9,8,8,0,0,0,1.6-5c0-.5-.9-.5-1.3-.5Zm-6.8,1.5a5.05,5.05,0,0,1,1.8,2.8,5,5,0,0,1,2.7-.2,7.46,7.46,0,0,0,.7-1.2A6,6,0,0,0,222.36,162.43Zm10.9,6.9a5.27,5.27,0,0,0-2.1-3.1h0l-.6-.3c-.3.5-.7,1.1-1.1,1.7a5,5,0,0,1,.2,1.2,5,5,0,0,1,3.6.5Zm-9-2.9a12.63,12.63,0,0,0-3.3,3.2c-2,2.9-3.6,6.9-3.5,9.7a1.48,1.48,0,0,0,.9,1.3,1.84,1.84,0,0,0,1.6.2c2.5-1.1,5.5-4.2,7.3-7.3a11.08,11.08,0,0,0,1.5-4.3,2.93,2.93,0,0,0-1.4-2.8A3.08,3.08,0,0,0,224.26,166.43Zm7.8,3.6a4.78,4.78,0,0,0-2.4-.1,11.83,11.83,0,0,1-1.5,4.2,20,20,0,0,1-6.8,7.3,3.24,3.24,0,0,0,.9.8,1.69,1.69,0,0,0,1.4,0c1.2-.3,3.1-1.7,6.1-4.2a14.5,14.5,0,0,0,3.5-4,3.27,3.27,0,0,0,.4-2.6,2.73,2.73,0,0,0-1.6-1.4Zm-14.1-5.7a13.41,13.41,0,0,0-2.1,4.9c-1,3.8-1.4,6.1-1.2,7.3a2,2,0,0,0,.6,1.2,2.26,2.26,0,0,0,1.1.5,19,19,0,0,1,3.7-9.3,13.87,13.87,0,0,1,3.2-3.2,4.32,4.32,0,0,0-1.2-2.1c-1.7-1.5-3.3-.4-4.1.7Zm2.8,0a.65.65,0,0,1-.2.8c-.1,0-.2.1-.3.2a.57.57,0,0,1-.7-.9.52.52,0,0,1,.4-.2C220.36,163.93,220.56,164.13,220.76,164.33Zm-1.8,1.5a.61.61,0,0,1,.1.8,13.65,13.65,0,0,0-1.8,4.4.57.57,0,1,1-1.1-.3,16.36,16.36,0,0,1,2-4.8A.62.62,0,0,1,219,165.83Z"/><path id="champi-4" data-name="champi" class="cls-3" d="M24.16,271.73a9.59,9.59,0,0,1,6.3,2.3,8.48,8.48,0,0,1,2.8,6.6h0a2.59,2.59,0,0,1-1.4,2.4,3,3,0,0,1-2.6,0h0a10.37,10.37,0,0,0-5.1-1.1h-1.5a24.33,24.33,0,0,1-1.1,7h0a2,2,0,0,0-.1.8,2.7,2.7,0,0,0,5.4,0,2.2,2.2,0,0,0-.1-.8,23.52,23.52,0,0,1-1-5.9l-.1-1.1h.4l.7.1v.9a22.76,22.76,0,0,0,1,5.7,3.75,3.75,0,0,1,.1,1.1,3.6,3.6,0,0,1-7.2,0,4.48,4.48,0,0,1,.1-1.1h0a24,24,0,0,0,1-6.6,6.18,6.18,0,0,0-2.7.9.76.76,0,0,1-.5.2,2.77,2.77,0,0,1-.1.9,2.22,2.22,0,0,1-1.7,1.4,1.91,1.91,0,0,0-1.5.4.88.88,0,0,0,.1.7c1.3,1.3,2.9,2.5,4.1,3.7a3.19,3.19,0,1,1-4.9,4.1,5.58,5.58,0,0,1-.5-.8c-.6-1.2-1.5-2.8-2.3-4.2a.78.78,0,0,0-.7-.3.63.63,0,0,0-.6.5,3.54,3.54,0,0,1-.3,1.1,2.07,2.07,0,0,1-1.7,1.4,2.66,2.66,0,0,1-2.2-.9,6.91,6.91,0,0,1-1.6-4.9,8,8,0,0,1,2.8-5.5,7.91,7.91,0,0,1,5.4-1.7,5.13,5.13,0,0,1,2.4.7,11.15,11.15,0,0,1,2.7,2,.52.52,0,0,1,.2.4c.1,0,.2-.1.3-.1h0a11.27,11.27,0,0,1,5.6-1.2,11.52,11.52,0,0,1,5.6,1.2h0a1.72,1.72,0,0,0,1.7,0,1.77,1.77,0,0,0,.9-1.6h0a7.57,7.57,0,0,0-2.5-5.9,9.42,9.42,0,0,0-5.6-2.1,8.19,8.19,0,0,0-8,6.2,4.05,4.05,0,0,1-.3,1.2h0l-.4-.2-.3-.1h0a8.66,8.66,0,0,1,.2-1,9.08,9.08,0,0,1,8.8-6.8Zm3.7,3.1a1.43,1.43,0,0,1,1.4,1.4,1.4,1.4,0,1,1-2.8,0A1.5,1.5,0,0,1,27.86,274.83Zm0,.9a.4.4,0,1,0,.4.4C28.36,275.93,28.16,275.73,27.86,275.73Zm-2.7,1.6a1.4,1.4,0,0,1,0,2.8,1.37,1.37,0,0,1-1.4-1.4A1.59,1.59,0,0,1,25.16,277.33Zm4.5.5a1.43,1.43,0,0,1,1.4,1.4,1.4,1.4,0,1,1-2.8,0A1.51,1.51,0,0,1,29.66,277.83Zm-4.5.5a.4.4,0,1,0,.4.4A.43.43,0,0,0,25.16,278.33Zm4.5.4a.4.4,0,1,0,.4.4A.43.43,0,0,0,29.66,278.73Zm-17.4,1.4a5.91,5.91,0,0,0-4.1,1.6,6.78,6.78,0,0,0-2.4,4.8,6,6,0,0,0,1.4,4.2,1.82,1.82,0,0,0,1.4.6,1.59,1.59,0,0,0,1-.8l.2-1.1a1.63,1.63,0,0,1,1.3-1.1,1.73,1.73,0,0,1,1.6.7l2.4,4.4.3.6a2.24,2.24,0,0,0,3.2.3,2.12,2.12,0,0,0,.2-3.1c-1.1-1.4-2.9-2.5-4-3.7a1.65,1.65,0,0,1-.2-1.8,2.21,2.21,0,0,1,2-.9,1.33,1.33,0,0,0,1-.8,1.53,1.53,0,0,0-.2-1.3,7.44,7.44,0,0,0-4.5-2.4.73.73,0,0,0-.6-.2Z"/></g><g id="citron"><path class="cls-2" d="M292.86,19.63a2.54,2.54,0,0,1-.2.7,10.39,10.39,0,0,1-1.5,3.4,13.77,13.77,0,0,1-2.2,2.6v.1a3.38,3.38,0,0,1,.2,2,3.31,3.31,0,0,1-1.9,2.4,3,3,0,0,1-2.6,0,3.19,3.19,0,0,1-1.8-1.8v-.1a12.92,12.92,0,0,1-3.4-.1,11.18,11.18,0,0,1-3.5-1.2,13.31,13.31,0,0,1-3-2.3,11.55,11.55,0,0,1-2.1-3.3l-.9-2a.54.54,0,0,1,1-.4l.9,2a11.73,11.73,0,0,0,1.9,3,10.91,10.91,0,0,0,2.7,2.1,12.13,12.13,0,0,0,3.2,1.1,10.28,10.28,0,0,0,3.5,0l.4-.1.4.8a2.35,2.35,0,1,0,4.3-1.9l-.4-.8.3-.2a9.56,9.56,0,0,0,2.3-2.6,12.32,12.32,0,0,0,1.4-3.1,9.82,9.82,0,0,0,.3-3.4,10.64,10.64,0,0,0-.9-3.5l-1.2-2.7a.54.54,0,0,1,1-.4l1.2,2.7a12.41,12.41,0,0,1,.9,3.8,10.89,10.89,0,0,1-.3,3.2Z"/><path class="cls-2" d="M291.56,15.53a8.64,8.64,0,0,1-.7,2.1,14.14,14.14,0,0,1-2.4,3.6,14.08,14.08,0,0,1-3.7,2.7,13.91,13.91,0,0,1-4.4,1.3,15.33,15.33,0,0,1-4.3-.3,11.58,11.58,0,0,1-3.7-1.8,9,9,0,0,1-3.5-7.2,9.68,9.68,0,0,1,.9-4,14.14,14.14,0,0,1,2.4-3.6,14.08,14.08,0,0,1,3.7-2.7,13.91,13.91,0,0,1,4.4-1.3,15.33,15.33,0,0,1,4.3.3,11.58,11.58,0,0,1,3.7,1.8,9,9,0,0,1,3.5,7.2,11.08,11.08,0,0,1-.2,1.9Zm-21.5-1.3a8.39,8.39,0,0,0,.6,5.2,8.15,8.15,0,0,0,5.6,4.4,12.86,12.86,0,0,0,3.9.3,10.18,10.18,0,0,0,4.1-1.2,10.72,10.72,0,0,0,3.4-2.5,11.9,11.9,0,0,0,2.2-3.3,8.77,8.77,0,0,0,0-7.1,8.15,8.15,0,0,0-5.6-4.4,12.86,12.86,0,0,0-3.9-.3,10.18,10.18,0,0,0-4.1,1.2,10.72,10.72,0,0,0-3.4,2.5,11.9,11.9,0,0,0-2.2,3.3C270.46,12.93,270.26,13.63,270.06,14.23Z"/><path class="cls-2" d="M288.16,15a8.7,8.7,0,0,1-4.8,5.9,9,9,0,0,1-6.2.7,7.07,7.07,0,0,1-2.6-1.3,5.78,5.78,0,0,1-1.8-2.3,6.83,6.83,0,0,1,0-5.6,8.77,8.77,0,0,1,4.3-4.4,9,9,0,0,1,6.2-.7,7.07,7.07,0,0,1,2.6,1.3,5.78,5.78,0,0,1,1.8,2.3,6.71,6.71,0,0,1,.6,2.8C288.26,14.13,288.16,14.53,288.16,15Zm-15-.9a6,6,0,0,0,.4,3.5c1.5,3.1,5.6,4.2,9.3,2.4a8.2,8.2,0,0,0,3.9-3.9,5.74,5.74,0,0,0,0-4.8,5.82,5.82,0,0,0-3.8-3,7.59,7.59,0,0,0-5.5.6,8.2,8.2,0,0,0-3.9,3.9,5,5,0,0,0-.4,1.3Z"/><path class="cls-2" d="M287.66,11.13c0,.2-.1.3-.3.4l-14,6.8a.51.51,0,1,1-.5-.9l14-6.8a.57.57,0,0,1,.7.2.37.37,0,0,1,.1.3Z"/><path class="cls-2" d="M279.56,21.23a.55.55,0,0,1-.6.4.44.44,0,0,1-.4-.6l1.9-12.8a.51.51,0,0,1,1,.2l-1.9,12.8Z"/><path class="cls-2" d="M286.46,17.83a.1.1,0,0,1-.1.1.57.57,0,0,1-.7.2l-11.8-6.4a.51.51,0,1,1,.5-.9l11.9,6.4A.45.45,0,0,1,286.46,17.83Z"/></g><g id="citron-2" data-name="citron"><path class="cls-2" d="M14.76,136h-.7a11.67,11.67,0,0,1-3.7-.8,9.25,9.25,0,0,1-2.9-1.7l-.1.1a3.29,3.29,0,0,1-1.9.6,3.5,3.5,0,0,1-2.8-1.4,3.12,3.12,0,0,1-.5-2.5,3.52,3.52,0,0,1,1.4-2.2l.1-.1a18.57,18.57,0,0,1-.6-3.4,15,15,0,0,1,.5-3.7,10.85,10.85,0,0,1,1.7-3.4,10.26,10.26,0,0,1,2.8-2.7l1.8-1.3a.5.5,0,1,1,.6.8l-1.8,1.3a9.9,9.9,0,0,0-2.5,2.5,8.92,8.92,0,0,0-1.5,3.1,12.7,12.7,0,0,0-.5,3.4,9.74,9.74,0,0,0,.6,3.4l.1.4-.7.5a2.3,2.3,0,0,0,2.6,3.8l.7-.5.3.3a9.23,9.23,0,0,0,3,1.8,9.76,9.76,0,0,0,3.3.7,9.63,9.63,0,0,0,3.4-.4,9.4,9.4,0,0,0,3.2-1.5l2.4-1.7a.5.5,0,1,1,.6.8l-2.4,1.7a12.58,12.58,0,0,1-3.5,1.7,14.47,14.47,0,0,1-3,.4Z"/><path class="cls-2" d="M18.56,133.83a16.35,16.35,0,0,1-2.2-.2,12.7,12.7,0,0,1-4-1.7,14.27,14.27,0,0,1-3.4-3.1,13.29,13.29,0,0,1-2.1-4.1,12.39,12.39,0,0,1-.5-4.3,9.2,9.2,0,0,1,1.1-4,7.88,7.88,0,0,1,2.6-3.1,10.38,10.38,0,0,1,3.7-1.7,9.49,9.49,0,0,1,4.1.1,12.7,12.7,0,0,1,4,1.7,14.27,14.27,0,0,1,3.4,3.1,13.29,13.29,0,0,1,2.1,4.1,12.39,12.39,0,0,1,.5,4.3,9.2,9.2,0,0,1-1.1,4,7.88,7.88,0,0,1-2.6,3.1,10.38,10.38,0,0,1-3.7,1.7,12.1,12.1,0,0,1-1.9.1Zm-2.9-21.3a9,9,0,0,0-5,1.6,8.74,8.74,0,0,0-3.3,6.3,10.48,10.48,0,0,0,.5,3.9,15,15,0,0,0,1.9,3.8,12.18,12.18,0,0,0,3.1,2.9,12.51,12.51,0,0,0,3.6,1.5,8.14,8.14,0,0,0,7-1.4,8.74,8.74,0,0,0,3.3-6.3,10.48,10.48,0,0,0-.5-3.9,15,15,0,0,0-1.9-3.8,12.18,12.18,0,0,0-3.1-2.9,12.51,12.51,0,0,0-3.6-1.5A15,15,0,0,0,15.66,112.53Z"/><path class="cls-2" d="M18.36,130.43a8.75,8.75,0,0,1-1.6-.2,8.56,8.56,0,0,1-5.2-3.4,9.44,9.44,0,0,1-1.9-5.9,8.23,8.23,0,0,1,.7-2.8,6.74,6.74,0,0,1,1.9-2.2,6.6,6.6,0,0,1,2.7-1.2,7.08,7.08,0,0,1,2.9,0,8.56,8.56,0,0,1,5.2,3.4A9.44,9.44,0,0,1,25,124a8.23,8.23,0,0,1-.7,2.8,6.74,6.74,0,0,1-1.9,2.2,6.6,6.6,0,0,1-2.7,1.2A5.07,5.07,0,0,1,18.36,130.43Zm-2-14.9a6,6,0,0,0-3.4,1.1c-2.7,2.1-3,6.3-.6,9.5a7.79,7.79,0,0,0,4.6,3,5.82,5.82,0,0,0,4.7-.9,5.69,5.69,0,0,0,2.2-4.3,7.75,7.75,0,0,0-1.7-5.2,8.28,8.28,0,0,0-4.6-3,4.3,4.3,0,0,0-1.2-.2Z"/><path class="cls-2" d="M22.06,129.23a.52.52,0,0,1-.4-.2l-9.4-12.4a.5.5,0,1,1,.8-.6l9.4,12.4a.49.49,0,0,1-.1.7c-.1,0-.2.1-.3.1Z"/><path class="cls-2" d="M10.56,123.23a.5.5,0,1,1,0-1l12.9-.6a.5.5,0,1,1,0,1l-12.9.6Z"/><path class="cls-2" d="M15.36,129.33h-.2a.45.45,0,0,1-.3-.6l3.9-12.9a.47.47,0,0,1,.9.3l-3.8,12.8A.51.51,0,0,1,15.36,129.33Z"/></g><g id="citron-3" data-name="citron"><path class="cls-2" d="M87.36,264.43a2.09,2.09,0,0,1-.4.6,13.26,13.26,0,0,1-2.6,2.7,10.81,10.81,0,0,1-3,1.6v.1a3,3,0,0,1-.5,1.9,3.49,3.49,0,0,1-2.7,1.6,3.58,3.58,0,0,1-2.4-.9,3,3,0,0,1-1.1-2.3v-.1a10.7,10.7,0,0,1-3.1-1.3,9.55,9.55,0,0,1-2.9-2.4,13.24,13.24,0,0,1-2-3.2,12.41,12.41,0,0,1-.9-3.8l-.1-2.2a.5.5,0,0,1,1,0l.1,2.2a10.5,10.5,0,0,0,.8,3.5,9.47,9.47,0,0,0,1.8,2.9,10.86,10.86,0,0,0,2.6,2.2,9.58,9.58,0,0,0,3.2,1.2l.4.1v.9a2.3,2.3,0,1,0,4.6-.2v-.9l.4-.1a13,13,0,0,0,3.1-1.6,11.43,11.43,0,0,0,2.4-2.5,9.87,9.87,0,0,0,1.5-3.1,10.2,10.2,0,0,0,.4-3.5l-.2-2.9a.5.5,0,0,1,1,0l.2,2.9a13,13,0,0,1-.4,3.9,12.47,12.47,0,0,1-1.2,2.7Z"/><path class="cls-2" d="M87.56,260a11,11,0,0,1-1.4,1.8,12.43,12.43,0,0,1-3.5,2.5,11.57,11.57,0,0,1-4.4,1.2,14.12,14.12,0,0,1-4.6-.4,13.84,13.84,0,0,1-3.9-1.8,8.91,8.91,0,0,1-2.8-3,8.74,8.74,0,0,1-.7-7.9,9.49,9.49,0,0,1,2.2-3.4,12.43,12.43,0,0,1,3.5-2.5,11.57,11.57,0,0,1,4.4-1.2,14.12,14.12,0,0,1,4.6.4,13.84,13.84,0,0,1,3.9,1.8,8.91,8.91,0,0,1,2.8,3,8.74,8.74,0,0,1,.7,7.9,11.94,11.94,0,0,1-.8,1.6Zm-19.7-8.7a7.76,7.76,0,0,0-1.2,5.1,8.2,8.2,0,0,0,3.7,6.1,11.66,11.66,0,0,0,3.6,1.6,10,10,0,0,0,4.2.3,11.9,11.9,0,0,0,4.1-1.1,12.44,12.44,0,0,0,3.2-2.3,8.7,8.7,0,0,0,2.5-6.7,8.2,8.2,0,0,0-3.7-6.1,11.66,11.66,0,0,0-3.6-1.6,10,10,0,0,0-4.2-.3,11.9,11.9,0,0,0-4.1,1.1,10.45,10.45,0,0,0-3.2,2.3A18.26,18.26,0,0,0,67.86,251.33Z"/><path class="cls-2" d="M84.46,258.33a11.32,11.32,0,0,1-1,1.3,8.66,8.66,0,0,1-5.6,2.6,8.89,8.89,0,0,1-6-1.5,8,8,0,0,1-2-2.1,7.09,7.09,0,0,1-.9-2.8,5.71,5.71,0,0,1,.4-2.9,7.58,7.58,0,0,1,1.6-2.5,8.66,8.66,0,0,1,5.6-2.6,8.89,8.89,0,0,1,6,1.5,8,8,0,0,1,2,2.1,7.09,7.09,0,0,1,.9,2.8,5.71,5.71,0,0,1-.4,2.9A3.38,3.38,0,0,1,84.46,258.33Zm-13.7-6a5.22,5.22,0,0,0-.8,3.4c.3,3.4,3.8,5.9,7.8,5.5a8.05,8.05,0,0,0,5-2.3,6.08,6.08,0,0,0,1.7-4.5,5.67,5.67,0,0,0-2.5-4.1,7.56,7.56,0,0,0-5.3-1.3,8.05,8.05,0,0,0-5,2.3c-.4.2-.6.6-.9,1Z"/><path class="cls-2" d="M85.36,254.63a.52.52,0,0,1-.4.2l-15.5,1.5a.55.55,0,1,1-.1-1.1l15.5-1.5a.63.63,0,0,1,.6.5.6.6,0,0,1-.1.4Z"/><path class="cls-2" d="M74.36,261.23a.51.51,0,1,1-.9-.5l6.3-11.3a.57.57,0,0,1,.7-.2c.3.1.3.4.2.7l-6.3,11.3Z"/><path class="cls-2" d="M82,260.43l-.1.1a.48.48,0,0,1-.7,0l-8.9-10.1a.49.49,0,1,1,.7-.7l8.9,10.1C82.06,259.93,82.06,260.23,82,260.43Z"/></g><g id="citron-4" data-name="citron"><path class="cls-2" d="M255.56,205.13v-.7a11.56,11.56,0,0,1,.7-3.7,10.81,10.81,0,0,1,1.6-3l-.1-.1a4.38,4.38,0,0,1-.7-1.9,3.41,3.41,0,0,1,1.3-2.8,3.42,3.42,0,0,1,4.7.7l.1.1a13,13,0,0,1,3.3-.7,11.38,11.38,0,0,1,3.7.4,10.61,10.61,0,0,1,3.4,1.6,10.26,10.26,0,0,1,2.8,2.7l1.3,1.8a.5.5,0,0,1-.8.6l-1.3-1.8a8.48,8.48,0,0,0-2.6-2.4,12.32,12.32,0,0,0-3.1-1.4,13.17,13.17,0,0,0-3.4-.4,9.94,9.94,0,0,0-3.4.8l-.4.1-.5-.7a2.36,2.36,0,0,0-3.8,2.8l.5.7-.2.3a11.09,11.09,0,0,0-1.7,3,10.79,10.79,0,0,0-.1,6.8,13.69,13.69,0,0,0,1.6,3.2l1.7,2.3a.5.5,0,0,1-.8.6l-1.7-2.3a11.63,11.63,0,0,1-1.8-3.5c-.1-1-.3-2.1-.3-3.1Z"/><path class="cls-2" d="M257.86,208.83a8.2,8.2,0,0,1,.2-2.2,12.18,12.18,0,0,1,1.5-4,14.29,14.29,0,0,1,3-3.5,13.1,13.1,0,0,1,4-2.2,12.34,12.34,0,0,1,4.2-.7,9,9,0,0,1,4,.9,8,8,0,0,1,3.2,2.5,8.54,8.54,0,0,1,1.8,3.7,11.25,11.25,0,0,1,.1,4.1,12.18,12.18,0,0,1-1.5,4,14.29,14.29,0,0,1-3,3.5,13.1,13.1,0,0,1-4,2.2,12.34,12.34,0,0,1-4.2.7,9,9,0,0,1-4-.9,8,8,0,0,1-3.2-2.5,8.54,8.54,0,0,1-1.8-3.7,5.82,5.82,0,0,1-.3-1.9Zm21.1-3.7a8.64,8.64,0,0,0-1.8-4.9,8.08,8.08,0,0,0-6.5-3,13.2,13.2,0,0,0-3.9.6,13.59,13.59,0,0,0-3.7,2.1,12.18,12.18,0,0,0-2.8,3.2,10.46,10.46,0,0,0-1.4,3.7,8,8,0,0,0,1.7,6.9,8.08,8.08,0,0,0,6.5,3,13.2,13.2,0,0,0,3.9-.6,13.59,13.59,0,0,0,3.7-2.1,12.18,12.18,0,0,0,2.8-3.2,10.46,10.46,0,0,0,1.4-3.7A6.56,6.56,0,0,0,279,205.13Z"/><path class="cls-2" d="M261.26,208.53a8.6,8.6,0,0,1,.1-1.6,9.26,9.26,0,0,1,9.1-7.4,6.39,6.39,0,0,1,2.8.6,5.78,5.78,0,0,1,2.3,1.8,6.38,6.38,0,0,1,1.3,2.6,9,9,0,0,1-9,10.3,6.39,6.39,0,0,1-2.8-.6,5.78,5.78,0,0,1-2.3-1.8,6.38,6.38,0,0,1-1.3-2.6C261.36,209.43,261.36,209,261.26,208.53Zm14.8-2.5a5.55,5.55,0,0,0-1.2-3.3c-2.2-2.7-6.4-2.7-9.6-.2a8.36,8.36,0,0,0-2.9,4.7,5.88,5.88,0,0,0,1.1,4.7,5.81,5.81,0,0,0,4.4,2.1,7.85,7.85,0,0,0,5.2-1.8,8.36,8.36,0,0,0,2.9-4.7,8.64,8.64,0,0,0,.1-1.5Z"/><path class="cls-2" d="M262.66,212.23a.52.52,0,0,1,.2-.4L275,202a.5.5,0,0,1,.6.8l-12.1,9.8a.49.49,0,0,1-.7-.1.37.37,0,0,1-.1-.3Z"/><path class="cls-2" d="M268.16,200.53a.47.47,0,0,1,.5-.5.63.63,0,0,1,.6.5l1.1,12.9a.55.55,0,0,1-1.1.1l-1.1-13Z"/><path class="cls-2" d="M262.26,205.53v-.2a.62.62,0,0,1,.6-.4l13,3.5a.51.51,0,1,1-.2,1l-13-3.5A.37.37,0,0,1,262.26,205.53Z"/></g></g></g></svg>