<svg id="Calque_1" data-name="Calque 1" xmlns="http://www.w3.org/2000/svg" viewBox="0 0 500 100"><defs><style>.cls-1{fill:#32c88c;}.cls-2{fill:#fff;}</style></defs><path class="cls-1" d="M66.19,44.92V85.76H55.25a43,43,0,0,0-2.94-7.63q-6.78,8.75-20.07,8.75Q18.16,86.88,9.07,77T0,50.37Q0,34,8.78,22.91T34.91,11.78q13,0,21,6.61t10.3,18.79L44.52,39.32q-1.6-11.37-10-11.37-11,0-11,20.92,0,12.66,3.52,16.68a10.94,10.94,0,0,0,8.54,4,10.24,10.24,0,0,0,6.92-2.45,8.59,8.59,0,0,0,2.91-6.73H33.36V44.92Z"/><path class="cls-2" d="M97.63,85.76H77.24V31.47H95V42.68q3-12.22,14.15-12.22c.74,0,1.78.07,3.09.21V49.62a17.77,17.77,0,0,0-4-.53q-10.58,0-10.57,11.79Z"/><path class="cls-2" d="M154.8,66.28l19.86,1.33a23.49,23.49,0,0,1-9,13.64q-7.23,5.63-19.56,5.63-13.72,0-21.89-7.93a26.31,26.31,0,0,1-8.16-19.67,28.5,28.5,0,0,1,8.06-20.55q8.05-8.37,21.51-8.38,13,0,21.06,7.9t8,21.51c0,.75,0,1.78-.05,3.1H138.3c.08,3.42.68,6,1.82,7.61S143.43,73,146.63,73Q153.57,73,154.8,66.28Zm-1.44-14.1c0-3.66-.77-6.13-2.21-7.39a7.83,7.83,0,0,0-5.35-1.89q-7.55,0-7.55,9.28Z"/><path class="cls-2" d="M218.91,66.28l19.85,1.33a23.42,23.42,0,0,1-9,13.64q-7.23,5.63-19.56,5.63-13.72,0-21.89-7.93a26.32,26.32,0,0,1-8.17-19.67,28.54,28.54,0,0,1,8.06-20.55q8.07-8.37,21.52-8.38,13,0,21.05,7.9t8,21.51c0,.75,0,1.78-.06,3.1H202.41c.07,3.42.68,6,1.82,7.61S207.54,73,210.74,73Q217.69,73,218.91,66.28Zm-1.44-14.1c0-3.66-.78-6.13-2.21-7.39a7.83,7.83,0,0,0-5.35-1.89q-7.54,0-7.55,9.28Z"/><path class="cls-2" d="M300.15,85.76h-21.3V51.6c0-2.81-.43-4.61-1.31-5.4A4.72,4.72,0,0,0,274.26,45q-5.82,0-5.82,8.11V85.76h-21.3V31.47h19.75v7.69q4.38-8.8,15.64-8.81a20.38,20.38,0,0,1,10,2.27,13.56,13.56,0,0,1,5.85,5.87q1.75,3.6,1.76,12.52Z"/><path class="cls-1" d="M394.26,68.36v17.4H339.44V12.9h54.82V29.71H361.38V40.28H388V56.45H361.38V68.36Z"/><path class="cls-2" d="M457.08,85.76H436.8a35.87,35.87,0,0,1-.75-7.58q-5.76,8.7-17.45,8.7-9.62,0-14.39-4.91a15.72,15.72,0,0,1-4.78-11.26q0-8.59,7.82-13.91T435,50.42V49.19q0-3.57-1.62-4.75a8.16,8.16,0,0,0-4.78-1.17q-7.36,0-8.22,5.92l-19.43-1.81q4.15-17,28.34-17a52.29,52.29,0,0,1,12.07,1.31,20.26,20.26,0,0,1,8.7,4.08,14.22,14.22,0,0,1,4.29,5.87q1.1,3.11,1.1,11.91V75.19A30,30,0,0,0,457.08,85.76ZM435,60.35q-13.61,1.44-13.61,8.7c0,3.28,1.8,4.91,5.39,4.91a8.68,8.68,0,0,0,5.82-2q2.4-2,2.4-9Z"/><path class="cls-2" d="M500,31.47V45.3H489.16v20c0,2.75.52,4.37,1.55,4.89a7.14,7.14,0,0,0,3.2.77,25.17,25.17,0,0,0,6.09-.9V85.22a64.54,64.54,0,0,1-12.38,1.23q-9.83,0-14.44-4.21t-4.62-13.46l.05-6.35V45.3H460.5V31.47h8.11l.32-17.67,20.23-.32v18Z"/><path class="cls-1" d="M76,9.35s-1.06,4.83-9.39,2.8c-4.53-1.09-9.7.52-10.17,8.22,2-2.24,6.81-6.79,12.66-4.55,0,0-5.87-1.47-11.73,6.14C59.5,24,65,28.06,70,24.33,76.65,19.41,76,9.35,76,9.35Z"/></svg>