<svg id="Calque_1" data-name="Calque 1" xmlns="http://www.w3.org/2000/svg" viewBox="0 0 500 100"><defs><style>.cls-1{fill:#32c88c;}</style></defs><path class="cls-1" d="M66.19,40.86V81.69H55.25a43.28,43.28,0,0,0-2.94-7.63q-6.78,8.76-20.07,8.75Q18.16,82.81,9.07,73T0,46.3Q0,30,8.78,18.84T34.91,7.71q13,0,21,6.62t10.3,18.79L44.52,35.25q-1.6-11.37-10-11.37-11,0-11,20.93,0,12.64,3.52,16.68a10.94,10.94,0,0,0,8.54,4,10.25,10.25,0,0,0,6.92-2.46,8.56,8.56,0,0,0,2.91-6.72H33.36V40.86Z"/><path d="M97.63,81.69H77.24V27.41H95V38.62q3-12.22,14.15-12.23a28.75,28.75,0,0,1,3.09.22V45.55a17.77,17.77,0,0,0-4-.53q-10.58,0-10.57,11.8Z"/><path d="M154.8,62.21l19.86,1.33a23.46,23.46,0,0,1-9,13.64q-7.23,5.64-19.56,5.63-13.72,0-21.89-7.92a26.32,26.32,0,0,1-8.16-19.67,28.47,28.47,0,0,1,8.06-20.55q8.05-8.39,21.51-8.38,13,0,21.06,7.9t8,21.51c0,.74,0,1.78-.05,3.09H138.3c.08,3.42.68,5.95,1.82,7.61s3.31,2.48,6.51,2.48Q153.57,68.88,154.8,62.21Zm-1.44-14.09c0-3.67-.77-6.13-2.21-7.4a7.83,7.83,0,0,0-5.35-1.89q-7.55,0-7.55,9.29Z"/><path d="M218.91,62.21l19.85,1.33a23.39,23.39,0,0,1-9,13.64q-7.23,5.64-19.56,5.63-13.72,0-21.89-7.92a26.33,26.33,0,0,1-8.17-19.67,28.51,28.51,0,0,1,8.06-20.55q8.07-8.39,21.52-8.38,13,0,21.05,7.9t8,21.51c0,.74,0,1.78-.06,3.09H202.41c.07,3.42.68,5.95,1.82,7.61s3.31,2.48,6.51,2.48Q217.69,68.88,218.91,62.21Zm-1.44-14.09c0-3.67-.78-6.13-2.21-7.4a7.83,7.83,0,0,0-5.35-1.89q-7.54,0-7.55,9.29Z"/><path d="M300.15,81.69h-21.3V47.53c0-2.81-.43-4.61-1.31-5.39A4.73,4.73,0,0,0,274.26,41q-5.82,0-5.82,8.12V81.69h-21.3V27.41h19.75v7.68q4.38-8.81,15.64-8.8a20.38,20.38,0,0,1,10,2.26,13.58,13.58,0,0,1,5.85,5.88q1.75,3.6,1.76,12.51Z"/><path class="cls-1" d="M394.26,64.29v17.4H339.44V8.83h54.82V25.64H361.38V36.21H388V52.39H361.38v11.9Z"/><path d="M457.08,81.69H436.8a35.87,35.87,0,0,1-.75-7.58q-5.76,8.7-17.45,8.7-9.62,0-14.39-4.91a15.7,15.7,0,0,1-4.78-11.26q0-8.6,7.82-13.91T435,46.36V45.13q0-3.59-1.62-4.75a8.09,8.09,0,0,0-4.78-1.18q-7.36,0-8.22,5.93l-19.43-1.82q4.15-17,28.34-17a52.31,52.31,0,0,1,12.07,1.3,20.38,20.38,0,0,1,8.7,4.09,14.16,14.16,0,0,1,4.29,5.87q1.1,3.09,1.1,11.9V71.12A30,30,0,0,0,457.08,81.69ZM435,56.28q-13.61,1.44-13.61,8.7,0,4.92,5.39,4.92a8.73,8.73,0,0,0,5.82-2q2.4-2,2.4-9Z"/><path d="M500,27.41V41.23H489.16v20q0,4.11,1.55,4.88a7,7,0,0,0,3.2.78A25.24,25.24,0,0,0,500,66V81.16a64.54,64.54,0,0,1-12.38,1.23q-9.83,0-14.44-4.22t-4.62-13.45l.05-6.35V41.23H460.5V27.41h8.11l.32-17.67,20.23-.32v18Z"/><path class="cls-1" d="M76,5.29s-1.06,4.82-9.39,2.8C62,7,56.87,8.61,56.4,16.31c2-2.24,6.81-6.79,12.66-4.55,0,0-5.87-1.48-11.73,6.13C59.5,19.88,65,24,70,20.26,76.65,15.34,76,5.29,76,5.29Z"/></svg>